<?xml version="1.0" encoding="UTF-8" standalone="no"?>
<!-- Created with Inkscape (http://www.inkscape.org/) -->

<svg
   xmlns:dc="http://purl.org/dc/elements/1.1/"
   xmlns:cc="http://creativecommons.org/ns#"
   xmlns:rdf="http://www.w3.org/1999/02/22-rdf-syntax-ns#"
   xmlns:svg="http://www.w3.org/2000/svg"
   xmlns="http://www.w3.org/2000/svg"
   xmlns:sodipodi="http://sodipodi.sourceforge.net/DTD/sodipodi-0.dtd"
   xmlns:inkscape="http://www.inkscape.org/namespaces/inkscape"
   version="1.1"
   id="svg2"
   xml:space="preserve"
   width="513.51129"
   height="473.52933"
   viewBox="0 0 513.51129 473.52933"
   sodipodi:docname="logo aktuální.svg"
   inkscape:version="0.92.4 (5da689c313, 2019-01-14)"><metadata
     id="metadata8"><rdf:RDF><cc:Work
         rdf:about=""><dc:format>image/svg+xml</dc:format><dc:type
           rdf:resource="http://purl.org/dc/dcmitype/StillImage" /><dc:title></dc:title></cc:Work></rdf:RDF></metadata><defs
     id="defs6"><linearGradient
       x1="0"
       y1="0"
       x2="1"
       y2="0"
       gradientUnits="userSpaceOnUse"
       gradientTransform="matrix(269.20874,-155.42773,-155.42773,-269.20874,-0.0595703,256.40332)"
       spreadMethod="pad"
       id="linearGradient28"><stop
         style="stop-opacity:1;stop-color:#dddce9"
         offset="0"
         id="stop24" /><stop
         style="stop-opacity:1;stop-color:#46465f"
         offset="1"
         id="stop26" /></linearGradient><clipPath
       clipPathUnits="userSpaceOnUse"
       id="clipPath38"><path
         d="M 0,419.53 H 419.53 V 0 H 0 Z"
         id="path36"
         inkscape:connector-curvature="0" /></clipPath><clipPath
       clipPathUnits="userSpaceOnUse"
       id="clipPath62"><path
         d="M 242.487,242.822 H 403.632 V 35.0566 H 242.487 Z"
         id="path60"
         inkscape:connector-curvature="0" /></clipPath><clipPath
       clipPathUnits="userSpaceOnUse"
       id="clipPath66"><path
         d="m 242.487,242.822 h 98.617 v -36.047 h -98.617 z"
         id="path64"
         inkscape:connector-curvature="0" /></clipPath><clipPath
       clipPathUnits="userSpaceOnUse"
       id="clipPath70"><path
         d="M 242.487,185.863 H 403.632 V 149.535 H 242.487 Z"
         id="path68"
         inkscape:connector-curvature="0" /></clipPath><clipPath
       clipPathUnits="userSpaceOnUse"
       id="clipPath74"><path
         d="M 242.487,128.625 H 356.055 V 92.2969 H 242.487 Z"
         id="path72"
         inkscape:connector-curvature="0" /></clipPath><clipPath
       clipPathUnits="userSpaceOnUse"
       id="clipPath78"><path
         d="m 242.487,71.3838 h 72.001 V 35.0566 h -72.001 z"
         id="path76"
         inkscape:connector-curvature="0" /></clipPath><clipPath
       clipPathUnits="userSpaceOnUse"
       id="clipPath138"><path
         d="m 195.753,264.59 h 39.096 V 31.792 h -39.096 z"
         id="path136"
         inkscape:connector-curvature="0" /></clipPath><clipPath
       clipPathUnits="userSpaceOnUse"
       id="clipPath142"><path
         d="m 195.753,264.59 h 39.096 v -62.008 h -39.096 z"
         id="path140"
         inkscape:connector-curvature="0" /></clipPath><clipPath
       clipPathUnits="userSpaceOnUse"
       id="clipPath146"><path
         d="m 200.335,207.659 h 29.94 v -62.008 h -29.94 z"
         id="path144"
         inkscape:connector-curvature="0" /></clipPath><clipPath
       clipPathUnits="userSpaceOnUse"
       id="clipPath150"><path
         d="M 197.625,150.729 H 232.98 V 88.7217 h -35.355 z"
         id="path148"
         inkscape:connector-curvature="0" /></clipPath><clipPath
       clipPathUnits="userSpaceOnUse"
       id="clipPath154"><path
         d="m 201.463,93.7998 h 27.683 V 31.792 h -27.683 z"
         id="path152"
         inkscape:connector-curvature="0" /></clipPath><linearGradient
       x1="0"
       y1="0"
       x2="1"
       y2="0"
       gradientUnits="userSpaceOnUse"
       gradientTransform="matrix(-126.56689,-1.11e-5,-1.11e-5,126.56689,168.03271,143.0791)"
       spreadMethod="pad"
       id="linearGradient224"><stop
         style="stop-opacity:1;stop-color:#dddce9"
         offset="0"
         id="stop220" /><stop
         style="stop-opacity:1;stop-color:#46465f"
         offset="1"
         id="stop222" /></linearGradient><clipPath
       clipPathUnits="userSpaceOnUse"
       id="clipPath234"><path
         d="M 0,419.53 H 419.53 V 0 H 0 Z"
         id="path232"
         inkscape:connector-curvature="0" /></clipPath><clipPath
       clipPathUnits="userSpaceOnUse"
       id="clipPath242"><path
         d="m 95.3423,332.949 h 51.9807 v -60.23 H 95.3423 Z"
         id="path240"
         inkscape:connector-curvature="0" /></clipPath></defs><sodipodi:namedview
     pagecolor="#ffffff"
     bordercolor="#666666"
     borderopacity="1"
     objecttolerance="10"
     gridtolerance="10"
     guidetolerance="10"
     inkscape:pageopacity="0"
     inkscape:pageshadow="2"
     inkscape:window-width="1920"
     inkscape:window-height="1001"
     id="namedview4"
     showgrid="false"
     inkscape:zoom="1.6876027"
     inkscape:cx="211.65009"
     inkscape:cy="230.33186"
     inkscape:window-x="-9"
     inkscape:window-y="-9"
     inkscape:window-maximized="1"
     inkscape:current-layer="g10" /><g
     id="g10"
     inkscape:groupmode="layer"
     inkscape:label="AZKS-logo-dalsi"
     transform="matrix(1.3333333,0,0,-1.3333333,-24.639999,514.92532)"><g
       id="g4844"
       inkscape:export-xdpi="300"
       inkscape:export-ydpi="300"><g
         id="g12"><g
           id="g14"><g
             id="g20"><g
               id="g22"><path
                 inkscape:connector-curvature="0"
                 id="path30"
                 style="fill:url(#linearGradient28);stroke:none"
                 d="m 41.545,300.787 h -0.003 v -1.934 -25.598 h -4.788 v -4.626 H 20.328 c -1.02,-0.001 -1.846,-1.067 -1.846,-2.382 v 0 -0.011 H 18.48 V 33.43 c 0.001,-1.314 0.828,-2.379 1.847,-2.379 v 0 h 0.008 v -0.004 h 207.514 c 1.021,0.002 1.847,1.066 1.846,2.383 v 0 0.009 h 0.003 v 232.805 c -0.001,1.314 -0.828,2.38 -1.848,2.38 v 0 h -0.008 v 0.003 h -18.335 v 5.526 h -4.819 v 26.632 h -0.06 c -1.762,59.31 -41.741,85.371 -84.402,85.409 v 0 C 77.594,386.159 41.894,356.345 41.545,300.787 m 18.749,-1.936 c 0.125,43.105 30.316,64.595 63.07,64.62 v 0 c 31.701,-0.679 62.143,-20.735 62.571,-64.62 v 0 -24.698 h -4.451 v -5.526 H 64.777 v 4.626 h -4.483 z" /></g></g></g></g><g
         id="g32"><g
           clip-path="url(#clipPath38)"
           id="g34"><g
             transform="translate(231.3838,260.8584)"
             id="g40"><path
               inkscape:connector-curvature="0"
               id="path42"
               style="fill:#f2b724;fill-opacity:1;fill-rule:nonzero;stroke:none"
               d="m 0,0 h -36.343 c -4.458,0 -8.072,-3.614 -8.072,-8.071 v -36.56 c 0,-4.457 3.614,-8.071 8.072,-8.071 H 0 c 4.458,0 8.071,3.614 8.071,8.071 v 36.56 C 8.071,-3.614 4.458,0 0,0" /></g><g
             transform="translate(231.3838,204.2285)"
             id="g44"><path
               inkscape:connector-curvature="0"
               id="path46"
               style="fill:#f2b724;fill-opacity:1;fill-rule:nonzero;stroke:none"
               d="m 0,0 h -36.343 c -4.458,0 -8.072,-3.613 -8.072,-8.072 v -36.559 c 0,-4.457 3.614,-8.07 8.072,-8.07 H 0 c 4.458,0 8.071,3.613 8.071,8.07 V -8.072 C 8.071,-3.613 4.458,0 0,0" /></g><g
             transform="translate(231.3838,147.5996)"
             id="g48"><path
               inkscape:connector-curvature="0"
               id="path50"
               style="fill:#f2b724;fill-opacity:1;fill-rule:nonzero;stroke:none"
               d="m 0,0 h -36.343 c -4.458,0 -8.072,-3.613 -8.072,-8.07 v -36.559 c 0,-4.459 3.614,-8.072 8.072,-8.072 H 0 c 4.458,0 8.071,3.613 8.071,8.072 V -8.07 C 8.071,-3.613 4.458,0 0,0" /></g><g
             transform="translate(231.3838,90.9727)"
             id="g52"><path
               inkscape:connector-curvature="0"
               id="path54"
               style="fill:#f2b724;fill-opacity:1;fill-rule:nonzero;stroke:none"
               d="m 0,0 h -36.343 c -4.458,0 -8.072,-3.613 -8.072,-8.07 v -36.561 c 0,-4.457 3.614,-8.07 8.072,-8.07 H 0 c 4.458,0 8.071,3.613 8.071,8.07 V -8.07 C 8.071,-3.613 4.458,0 0,0" /></g><g
             id="g56"><g
               id="g58" /><g
               id="g130"><g
                 id="g128"
                 clip-path="url(#clipPath62)"><g
                   id="g90"><g
                     id="g80" /><g
                     id="g88"><g
                       id="g86"
                       clip-path="url(#clipPath66)"><text
                         id="text84"
                         style="font-variant:normal;font-weight:bold;font-stretch:normal;font-size:30.94029999px;font-family:Calibri;-inkscape-font-specification:Calibri-Bold;writing-mode:lr-tb;fill:#46455e;fill-opacity:1;fill-rule:nonzero;stroke:none"
                         transform="matrix(1,0,0,-1,242.4868,217.5771)"><tspan
                           id="tspan82"
                           sodipodi:role="line"
                           y="0"
                           x="0 12.963985 32.208851 46.905495 53.495777 70.212822 84.909462">SOCIACE</tspan></text>
</g></g></g><g
                   id="g102"><g
                     id="g92" /><g
                     id="g100"><g
                       id="g98"
                       clip-path="url(#clipPath70)"><text
                         id="text96"
                         style="font-variant:normal;font-weight:bold;font-stretch:normal;font-size:30.94029999px;font-family:Calibri;-inkscape-font-specification:Calibri-Bold;writing-mode:lr-tb;fill:#46455e;fill-opacity:1;fill-rule:nonzero;stroke:none"
                         transform="matrix(1,0,0,-1,242.4868,160.3369)"><tspan
                           id="tspan94"
                           sodipodi:role="line"
                           y="0"
                           x="0 17.079046 42.450092 56.339191 75.064262 91.679199 104.87524 119.57188 137.42444 142.74617">ÁMKOVÝCH A</tspan></text>
</g></g></g><g
                   id="g114"><g
                     id="g104" /><g
                     id="g112"><g
                       id="g110"
                       clip-path="url(#clipPath74)"><text
                         id="text108"
                         style="font-variant:normal;font-weight:bold;font-stretch:normal;font-size:30.94029999px;font-family:Calibri;-inkscape-font-specification:Calibri-Bold;writing-mode:lr-tb;fill:#46455e;fill-opacity:1;fill-rule:nonzero;stroke:none"
                         transform="matrix(1,0,0,-1,242.4868,103.0986)"><tspan
                           id="tspan106"
                           sodipodi:role="line"
                           y="0"
                           x="0 11.41697 18.007254 32.484222 51.20929 67.824234 81.020271 95.716911">LÍČOVÝCH</tspan></text>
</g></g></g><g
                   id="g126"><g
                     id="g116" /><g
                     id="g124"><g
                       id="g122"
                       clip-path="url(#clipPath78)"><text
                         id="text120"
                         style="font-variant:normal;font-weight:bold;font-stretch:normal;font-size:30.94029999px;font-family:Calibri;-inkscape-font-specification:Calibri-Bold;writing-mode:lr-tb;fill:#46455e;fill-opacity:1;fill-rule:nonzero;stroke:none"
                         transform="matrix(1,0,0,-1,242.4868,45.8584)"><tspan
                           id="tspan118"
                           sodipodi:role="line"
                           y="0"
                           x="0 10.655839 29.189079 42.307766 55.735855">LUŽEB</tspan></text>
</g></g></g></g></g></g><g
             id="g132"><g
               id="g134" /><g
               id="g206"><g
                 id="g204"
                 clip-path="url(#clipPath138)"><g
                   id="g166"><g
                     id="g156" /><g
                     id="g164"><g
                       id="g162"
                       clip-path="url(#clipPath142)"><text
                         id="text160"
                         style="font-variant:normal;font-weight:normal;font-stretch:normal;font-size:59.3022995px;font-family:'Berlin Sans FB';-inkscape-font-specification:BerlinSansFB-Reg;writing-mode:lr-tb;fill:#644619;fill-opacity:1;fill-rule:nonzero;stroke:none"
                         transform="matrix(1,0,0,-1,195.7583,214.6279)"><tspan
                           id="tspan158"
                           y="0"
                           x="0">A</tspan></text>
</g></g></g><g
                   id="g178"><g
                     id="g168" /><g
                     id="g176"><g
                       id="g174"
                       clip-path="url(#clipPath146)"><text
                         id="text172"
                         style="font-variant:normal;font-weight:normal;font-stretch:normal;font-size:59.3022995px;font-family:'Berlin Sans FB';-inkscape-font-specification:BerlinSansFB-Reg;writing-mode:lr-tb;fill:#644619;fill-opacity:1;fill-rule:nonzero;stroke:none"
                         transform="matrix(1,0,0,-1,200.335,157.6973)"><tspan
                           id="tspan170"
                           y="0"
                           x="0">Z</tspan></text>
</g></g></g><g
                   id="g190"><g
                     id="g180" /><g
                     id="g188"><g
                       id="g186"
                       clip-path="url(#clipPath150)"><text
                         id="text184"
                         style="font-variant:normal;font-weight:normal;font-stretch:normal;font-size:59.3022995px;font-family:'Berlin Sans FB';-inkscape-font-specification:BerlinSansFB-Reg;writing-mode:lr-tb;fill:#644619;fill-opacity:1;fill-rule:nonzero;stroke:none"
                         transform="matrix(1,0,0,-1,197.6255,100.7676)"><tspan
                           id="tspan182"
                           y="0"
                           x="0">K</tspan></text>
</g></g></g><g
                   id="g202"><g
                     id="g192" /><g
                     id="g200"><g
                       id="g198"
                       clip-path="url(#clipPath154)"><text
                         id="text196"
                         style="font-variant:normal;font-weight:normal;font-stretch:normal;font-size:59.3022995px;font-family:'Berlin Sans FB';-inkscape-font-specification:BerlinSansFB-Reg;writing-mode:lr-tb;fill:#644619;fill-opacity:1;fill-rule:nonzero;stroke:none"
                         transform="matrix(1,0,0,-1,201.4634,43.8379)"><tspan
                           id="tspan194"
                           y="0"
                           x="0">S</tspan></text>
</g></g></g></g></g></g></g></g><g
         id="g208"><g
           id="g210"><g
             id="g216"><g
               id="g218"><path
                 inkscape:connector-curvature="0"
                 id="path226"
                 style="fill:url(#linearGradient224);stroke:none"
                 d="m 103.583,221.193 -0.001,-0.001 v 0.001 C 84.849,208.325 80.095,182.707 92.962,163.975 v 0 h 10e-4 c 0.363,-0.514 0.736,-1.018 1.122,-1.514 v 0 l -52.619,-88.576 4.268,-14.836 47.961,80.047 3.195,-2.6 -48.558,-78.766 24.356,6.014 7.116,12.221 -0.929,11.207 9.329,1.613 7.307,12.353 -2.774,9.378 4.934,2.259 -0.847,5.34 9.76,3.039 4.745,11.159 7.925,-4.149 2.11,5.963 -3.709,7.041 3.03,5.476 c 10.327,-1.587 20.871,0.813 29.493,6.711 v 0 c 18.732,12.868 23.487,38.483 10.62,57.218 v 0 c -7.976,11.613 -20.855,17.854 -33.954,17.854 v 0 c -8.03,0.001 -16.142,-2.344 -23.261,-7.234 m 24.636,-23.552 -0.001,0.002 c -3.088,4.498 -1.946,10.65 2.551,13.74 v 0 h 0.002 c 4.497,3.09 10.648,1.948 13.737,-2.55 v 0 c 3.089,-4.499 1.948,-10.649 -2.549,-13.739 v 0 c -1.71,-1.176 -3.66,-1.739 -5.588,-1.74 v 0 c -3.145,0 -6.235,1.499 -8.152,4.287" /></g></g></g></g><g
         id="g228"><g
           clip-path="url(#clipPath234)"
           id="g230"><g
             id="g236"><g
               id="g238" /><g
               id="g250"><g
                 id="g248"
                 clip-path="url(#clipPath242)"><text
                   id="text246"
                   style="font-variant:normal;font-weight:bold;font-stretch:normal;font-size:51.2983017px;font-family:Calibri;-inkscape-font-specification:Calibri-Bold;writing-mode:lr-tb;fill:#46455e;fill-opacity:1;fill-rule:nonzero;stroke:none"
                   transform="matrix(1,0,0,-1,95.3423,290.6284)"><tspan
                     id="tspan244"
                     sodipodi:role="line"
                     y="0"
                     x="0 24.366692">ČR</tspan></text>
</g></g></g></g></g></g></g></svg>