<?xml version="1.0" encoding="UTF-8" standalone="no"?>
<!-- Created with Inkscape (http://www.inkscape.org/) -->

<svg
   xmlns:dc="http://purl.org/dc/elements/1.1/"
   xmlns:cc="http://creativecommons.org/ns#"
   xmlns:rdf="http://www.w3.org/1999/02/22-rdf-syntax-ns#"
   xmlns:svg="http://www.w3.org/2000/svg"
   xmlns="http://www.w3.org/2000/svg"
   xmlns:sodipodi="http://sodipodi.sourceforge.net/DTD/sodipodi-0.dtd"
   xmlns:inkscape="http://www.inkscape.org/namespaces/inkscape"
   version="1.1"
   id="svg2"
   xml:space="preserve"
   width="294.63306"
   height="473.52933"
   viewBox="0 0 294.63306 473.52933"
   sodipodi:docname="logo aktuální bez textu.svg"
   inkscape:version="0.92.4 (5da689c313, 2019-01-14)"><metadata
     id="metadata8"><rdf:RDF><cc:Work
         rdf:about=""><dc:format>image/svg+xml</dc:format><dc:type
           rdf:resource="http://purl.org/dc/dcmitype/StillImage" /><dc:title /></cc:Work></rdf:RDF></metadata><defs
     id="defs6"><linearGradient
   x1="0"
   y1="0"
   x2="1"
   y2="0"
   gradientUnits="userSpaceOnUse"
   gradientTransform="matrix(269.20874,-155.42773,-155.42773,-269.20874,-0.0595703,256.40332)"
   spreadMethod="pad"
   id="linearGradient28"><stop
     style="stop-opacity:1;stop-color:#dddce9"
     offset="0"
     id="stop24" /><stop
     style="stop-opacity:1;stop-color:#46465f"
     offset="1"
     id="stop26" /></linearGradient><clipPath
   clipPathUnits="userSpaceOnUse"
   id="clipPath38"><path
     d="M 0,419.53 H 419.53 V 0 H 0 Z"
     id="path36"
     inkscape:connector-curvature="0" /></clipPath><clipPath
   clipPathUnits="userSpaceOnUse"
   id="clipPath62"><path
     d="M 242.487,242.822 H 403.632 V 35.0566 H 242.487 Z"
     id="path60"
     inkscape:connector-curvature="0" /></clipPath><clipPath
   clipPathUnits="userSpaceOnUse"
   id="clipPath66"><path
     d="m 242.487,242.822 h 98.617 v -36.047 h -98.617 z"
     id="path64"
     inkscape:connector-curvature="0" /></clipPath><clipPath
   clipPathUnits="userSpaceOnUse"
   id="clipPath70"><path
     d="M 242.487,185.863 H 403.632 V 149.535 H 242.487 Z"
     id="path68"
     inkscape:connector-curvature="0" /></clipPath><clipPath
   clipPathUnits="userSpaceOnUse"
   id="clipPath74"><path
     d="M 242.487,128.625 H 356.055 V 92.2969 H 242.487 Z"
     id="path72"
     inkscape:connector-curvature="0" /></clipPath><clipPath
   clipPathUnits="userSpaceOnUse"
   id="clipPath78"><path
     d="m 242.487,71.3838 h 72.001 V 35.0566 h -72.001 z"
     id="path76"
     inkscape:connector-curvature="0" /></clipPath><clipPath
   clipPathUnits="userSpaceOnUse"
   id="clipPath138"><path
     d="m 195.753,264.59 h 39.096 V 31.792 h -39.096 z"
     id="path136"
     inkscape:connector-curvature="0" /></clipPath><clipPath
   clipPathUnits="userSpaceOnUse"
   id="clipPath142"><path
     d="m 195.753,264.59 h 39.096 v -62.008 h -39.096 z"
     id="path140"
     inkscape:connector-curvature="0" /></clipPath><clipPath
   clipPathUnits="userSpaceOnUse"
   id="clipPath146"><path
     d="m 200.335,207.659 h 29.94 v -62.008 h -29.94 z"
     id="path144"
     inkscape:connector-curvature="0" /></clipPath><clipPath
   clipPathUnits="userSpaceOnUse"
   id="clipPath150"><path
     d="M 197.625,150.729 H 232.98 V 88.7217 h -35.355 z"
     id="path148"
     inkscape:connector-curvature="0" /></clipPath><clipPath
   clipPathUnits="userSpaceOnUse"
   id="clipPath154"><path
     d="m 201.463,93.7998 h 27.683 V 31.792 h -27.683 z"
     id="path152"
     inkscape:connector-curvature="0" /></clipPath><linearGradient
   x1="0"
   y1="0"
   x2="1"
   y2="0"
   gradientUnits="userSpaceOnUse"
   gradientTransform="matrix(-126.56689,-1.11e-5,-1.11e-5,126.56689,168.03271,143.0791)"
   spreadMethod="pad"
   id="linearGradient224"><stop
     style="stop-opacity:1;stop-color:#dddce9"
     offset="0"
     id="stop220" /><stop
     style="stop-opacity:1;stop-color:#46465f"
     offset="1"
     id="stop222" /></linearGradient><clipPath
   clipPathUnits="userSpaceOnUse"
   id="clipPath234"><path
     d="M 0,419.53 H 419.53 V 0 H 0 Z"
     id="path232"
     inkscape:connector-curvature="0" /></clipPath><clipPath
   clipPathUnits="userSpaceOnUse"
   id="clipPath242"><path
     d="m 95.3423,332.949 h 51.9807 v -60.23 H 95.3423 Z"
     id="path240"
     inkscape:connector-curvature="0" /></clipPath>







</defs><sodipodi:namedview
     pagecolor="#ffffff"
     bordercolor="#666666"
     borderopacity="1"
     objecttolerance="10"
     gridtolerance="10"
     guidetolerance="10"
     inkscape:pageopacity="0"
     inkscape:pageshadow="2"
     inkscape:window-width="1920"
     inkscape:window-height="1001"
     id="namedview4"
     showgrid="false"
     inkscape:zoom="2.3866306"
     inkscape:cx="210.69924"
     inkscape:cy="194.2411"
     inkscape:window-x="-9"
     inkscape:window-y="1491"
     inkscape:window-maximized="1"
     inkscape:current-layer="g10" /><g
     id="g10"
     inkscape:groupmode="layer"
     inkscape:label="AZKS-logo-dalsi"
     transform="matrix(1.3333333,0,0,-1.3333333,-24.639999,514.92532)"><path
       d="m 41.545,300.787 h -0.003 v -1.934 -25.598 h -4.788 v -4.626 H 20.328 c -1.02,-0.001 -1.846,-1.067 -1.846,-2.382 v 0 -0.011 H 18.48 V 33.43 c 0.001,-1.314 0.828,-2.379 1.847,-2.379 v 0 h 0.008 v -0.004 h 207.514 c 1.021,0.002 1.847,1.066 1.846,2.383 v 0 0.009 h 0.003 v 232.805 c -0.001,1.314 -0.828,2.38 -1.848,2.38 v 0 h -0.008 v 0.003 h -18.335 v 5.526 h -4.819 v 26.632 h -0.06 c -1.762,59.31 -41.741,85.371 -84.402,85.409 v 0 C 77.594,386.159 41.894,356.345 41.545,300.787 m 18.749,-1.936 c 0.125,43.105 30.316,64.595 63.07,64.62 v 0 c 31.701,-0.679 62.143,-20.735 62.571,-64.62 v 0 -24.698 h -4.451 v -5.526 H 64.777 v 4.626 h -4.483 z"
       style="fill:url(#linearGradient28);stroke:none"
       id="path30"
       inkscape:connector-curvature="0" /><path
       inkscape:connector-curvature="0"
       id="path42"
       style="fill:#f2b724;fill-opacity:1;fill-rule:nonzero;stroke:none"
       d="m 231.3838,260.8584 h -36.343 c -4.458,0 -8.072,-3.614 -8.072,-8.071 v -36.56 c 0,-4.457 3.614,-8.071 8.072,-8.071 h 36.343 c 4.458,0 8.071,3.614 8.071,8.071 v 36.56 c 0,4.457 -3.613,8.071 -8.071,8.071" /><path
       inkscape:connector-curvature="0"
       id="path46"
       style="fill:#f2b724;fill-opacity:1;fill-rule:nonzero;stroke:none"
       d="m 231.3838,204.2285 h -36.343 c -4.458,0 -8.072,-3.613 -8.072,-8.072 v -36.559 c 0,-4.457 3.614,-8.07 8.072,-8.07 h 36.343 c 4.458,0 8.071,3.613 8.071,8.07 v 36.559 c 0,4.459 -3.613,8.072 -8.071,8.072" /><path
       inkscape:connector-curvature="0"
       id="path50"
       style="fill:#f2b724;fill-opacity:1;fill-rule:nonzero;stroke:none"
       d="m 231.3838,147.5996 h -36.343 c -4.458,0 -8.072,-3.613 -8.072,-8.07 v -36.559 c 0,-4.459 3.614,-8.072 8.072,-8.072 h 36.343 c 4.458,0 8.071,3.613 8.071,8.072 v 36.559 c 0,4.457 -3.613,8.07 -8.071,8.07" /><path
       inkscape:connector-curvature="0"
       id="path54"
       style="fill:#f2b724;fill-opacity:1;fill-rule:nonzero;stroke:none"
       d="m 231.3838,90.9727 h -36.343 c -4.458,0 -8.072,-3.613 -8.072,-8.07 v -36.561 c 0,-4.457 3.614,-8.07 8.072,-8.07 h 36.343 c 4.458,0 8.071,3.613 8.071,8.07 v 36.561 c 0,4.457 -3.613,8.07 -8.071,8.07" /><g
       aria-label="A"
       transform="scale(1,-1)"
       style="font-variant:normal;font-weight:normal;font-stretch:normal;font-size:59.3022995px;font-family:'Berlin Sans FB';-inkscape-font-specification:BerlinSansFB-Reg;writing-mode:lr-tb;fill:#644619;fill-opacity:1;fill-rule:nonzero;stroke:none"
       id="text160"><path
         d="m 234.58857,-214.97537 q 0,0.34747 -0.69495,0.34747 -0.55017,0 -1.62155,-0.0869 -1.04242,-0.0869 -1.59259,-0.0869 -0.55017,0 -1.6505,0.0869 -1.10034,0.0869 -1.65051,0.0869 -0.81077,0 -2.08484,-4.37239 -1.24512,-4.40134 -2.54815,-4.45925 -1.07138,-0.0579 -5.58855,-0.0579 h -4.57508 q -4.77777,0 -5.44376,0.0579 -1.04243,0.0869 -2.22963,4.45925 -1.15825,4.37239 -1.79528,4.37239 h -6.51515 q -0.57912,0 -0.57912,-0.40539 0,-0.28956 0.40538,-1.30303 l 7.09427,-19.40065 q 0.89764,-2.34545 5.44377,-13.52255 0.81077,-1.85319 2.20067,-5.58854 0.34747,-1.10034 0.75286,-1.10034 0.55017,0 1.62155,0.14478 1.07138,0.14478 1.62155,0.14478 0.52121,0 1.56363,-0.14478 1.07138,-0.17373 1.56364,-0.17373 0.2606,0 0.7239,1.07138 0.69495,1.62154 6.86262,17.46058 8.71582,22.26732 8.71582,22.47002 z m -13.49359,-15.98383 q 0,-0.83973 -2.60606,-7.52861 -2.51919,-6.48619 -3.56161,-8.51312 -5.99394,15.28887 -5.99394,16.01278 0,0.98451 2.20067,1.15825 0.11583,0.029 2.83771,0.029 h 2.98249 q 4.14074,0 4.14074,-1.15825 z"
         style=""
         id="path2380" /></g><g
       aria-label="Z"
       transform="scale(1,-1)"
       style="font-variant:normal;font-weight:normal;font-stretch:normal;font-size:59.3022995px;font-family:'Berlin Sans FB';-inkscape-font-specification:BerlinSansFB-Reg;writing-mode:lr-tb;fill:#644619;fill-opacity:1;fill-rule:nonzero;stroke:none"
       id="text172"><path
         d="m 228.59626,-164.32827 q 0,1.01347 -0.37643,3.09832 -0.37643,2.08484 -0.37643,3.12727 0,0.63703 -0.69495,0.63703 -1.73737,0 -5.18316,-0.11582 -3.41683,-0.11583 -5.1542,-0.11583 h -13.7542 q -0.81077,0 -0.95556,-0.57912 -0.63703,-3.24309 -0.63703,-4.83569 0,-0.31851 8.80268,-14.15958 8.83164,-13.87002 8.83164,-14.56497 0,-0.31852 -0.7239,-0.31852 h -15.43366 q -0.57912,0 -0.57912,-0.57912 0,-0.23165 0.40539,-2.63501 0.43434,-2.40337 0.52121,-2.7798 0.11582,-0.40539 0.69495,-0.40539 1.12929,0 3.32996,0.2027 2.22963,0.20269 3.32996,0.20269 h 16.27339 q 0.52121,0 0.63704,0.49226 0.43434,1.76632 0.43434,4.31447 0,0.17374 -9.17912,14.56497 -9.15016,14.39123 -9.17911,14.82557 0.14478,0.2027 0.55017,0.2027 8.39729,0 12.85655,-0.34748 0.57912,-0.0579 2.60606,-0.31851 1.6505,-0.23165 2.5771,-0.23165 0.37643,0 0.37643,0.31851 z"
         style=""
         id="path2383" /></g><g
       aria-label="K"
       transform="scale(1,-1)"
       style="font-variant:normal;font-weight:normal;font-stretch:normal;font-size:59.3022995px;font-family:'Berlin Sans FB';-inkscape-font-specification:BerlinSansFB-Reg;writing-mode:lr-tb;fill:#644619;fill-opacity:1;fill-rule:nonzero;stroke:none"
       id="text184"><path
         d="m 232.69146,-102.12854 q 0,1.36094 -0.83973,1.36094 h -6.65992 q -0.83973,0 -4.37239,-6.16767 -2.98249,-5.21212 -3.967,-7.52861 -0.98451,-2.22963 -1.12929,-2.49024 -0.86869,-1.44781 -2.02693,-1.53468 -0.34748,-0.029 -1.94007,-0.029 -3.64848,0 -3.64848,0.89764 0,2.66397 0.17374,7.96296 0.20269,5.29898 0.20269,7.93399 0,0.95556 -0.72391,0.95556 -0.55016,0 -1.6505,-0.0869 -1.10034,-0.0869 -1.6505,-0.0869 -0.52121,0 -1.56364,0.0869 -1.01346,0.0869 -1.53468,0.0869 -0.7239,0 -0.7239,-0.66599 0,-3.18519 0.28956,-9.55555 0.31852,-6.39932 0.31852,-9.5845 0,-3.35892 -0.31852,-10.07676 -0.28956,-6.7468 -0.28956,-10.10571 0,-0.63704 0.7239,-0.63704 0.52122,0 1.59259,0.0869 1.07138,0.0869 1.62155,0.0869 0.52121,0 1.56364,-0.0869 1.04242,-0.0869 1.56363,-0.0869 0.66599,0 0.66599,0.52121 0,2.46128 -0.17373,7.41279 -0.14478,4.95151 -0.14478,7.44174 0,1.12929 0.14478,1.41886 0.23165,0.52121 1.1872,0.52121 5.6175,0 8.22356,-2.08485 2.22963,-1.8532 4.22761,-6.80471 1.44781,-3.88013 2.89562,-7.76026 0.20269,-0.49225 0.89764,-0.66599 0.4633,-0.11583 3.06936,-0.11583 3.18518,0 3.18518,0.89765 0,0.52121 -1.33199,4.6909 -1.56363,4.86464 -4.05386,8.57104 -1.65051,2.51919 -4.37239,5.06733 -0.69495,0.60808 -0.69495,1.10034 0,0.52121 2.34545,5.18316 2.02694,4.02491 3.67744,6.45723 1.82424,2.22963 5.09629,6.86262 0.14478,0.26061 0.14478,0.55017 z"
         style=""
         id="path2386" /></g><g
       aria-label="S"
       transform="scale(1,-1)"
       style="font-variant:normal;font-weight:normal;font-stretch:normal;font-size:59.3022995px;font-family:'Berlin Sans FB';-inkscape-font-specification:BerlinSansFB-Reg;writing-mode:lr-tb;fill:#644619;fill-opacity:1;fill-rule:nonzero;stroke:none"
       id="text196"><path
         d="m 227.66876,-81.538872 q -0.57913,0.955555 -1.5926,2.89562 -0.31851,0.897642 -1.12929,2.548146 -0.17373,0.260606 -0.4633,0.260606 0.029,0 -2.80875,-1.013467 -2.80875,-1.042424 -4.63299,-1.042424 -5.32794,0 -5.32794,4.690905 0,2.606058 3.73535,4.546124 6.28349,3.27205 6.94949,3.764306 3.73535,2.982488 3.73535,8.049824 0,6.486189 -5.12525,10.221538 -4.60404,3.35892 -11.32187,3.35892 -3.12727,0 -3.35892,-0.694949 -0.11583,-1.100336 -0.52122,-3.214138 -0.23165,-0.868686 -0.7239,-2.606058 -0.0869,-0.260606 -0.0869,-0.492256 0,-0.405387 0.43434,-0.405387 0.69495,0 2.11381,0.144781 1.44781,0.144781 2.17171,0.144781 8.97642,0 8.97642,-5.79124 0,-2.837708 -3.61952,-4.922554 -6.60202,-3.764306 -6.7468,-3.909087 -3.64848,-2.953533 -3.64848,-7.933999 0,-5.385854 3.53266,-8.628948 3.44579,-3.12727 8.91851,-3.12727 2.31649,0 5.32794,0.752861 3.27205,0.83973 4.92255,2.026935 0.14478,0.115824 0.28957,0.37643 z"
         style=""
         id="path2389" /></g><path
       d="m 103.583,221.193 -0.001,-0.001 v 0.001 C 84.849,208.325 80.095,182.707 92.962,163.975 v 0 h 10e-4 c 0.363,-0.514 0.736,-1.018 1.122,-1.514 v 0 l -52.619,-88.576 4.268,-14.836 47.961,80.047 3.195,-2.6 -48.558,-78.766 24.356,6.014 7.116,12.221 -0.929,11.207 9.329,1.613 7.307,12.353 -2.774,9.378 4.934,2.259 -0.847,5.34 9.76,3.039 4.745,11.159 7.925,-4.149 2.11,5.963 -3.709,7.041 3.03,5.476 c 10.327,-1.587 20.871,0.813 29.493,6.711 v 0 c 18.732,12.868 23.487,38.483 10.62,57.218 v 0 c -7.976,11.613 -20.855,17.854 -33.954,17.854 v 0 c -8.03,0.001 -16.142,-2.344 -23.261,-7.234 m 24.636,-23.552 -0.001,0.002 c -3.088,4.498 -1.946,10.65 2.551,13.74 v 0 h 0.002 c 4.497,3.09 10.648,1.948 13.737,-2.55 v 0 c 3.089,-4.499 1.948,-10.649 -2.549,-13.739 v 0 c -1.71,-1.176 -3.66,-1.739 -5.588,-1.74 v 0 c -3.145,0 -6.235,1.499 -8.152,4.287"
       style="fill:url(#linearGradient224);stroke:none"
       id="path226"
       inkscape:connector-curvature="0" /></g></svg>