<?xml version="1.0" encoding="UTF-8" standalone="no"?>
<!-- Created with Inkscape (http://www.inkscape.org/) -->

<svg
   xmlns:dc="http://purl.org/dc/elements/1.1/"
   xmlns:cc="http://creativecommons.org/ns#"
   xmlns:rdf="http://www.w3.org/1999/02/22-rdf-syntax-ns#"
   xmlns:svg="http://www.w3.org/2000/svg"
   xmlns="http://www.w3.org/2000/svg"
   xmlns:sodipodi="http://sodipodi.sourceforge.net/DTD/sodipodi-0.dtd"
   xmlns:inkscape="http://www.inkscape.org/namespaces/inkscape"
   version="1.1"
   id="svg2"
   xml:space="preserve"
   width="513.51129"
   height="473.52933"
   viewBox="0 0 513.51129 473.52933"
   sodipodi:docname="logo aktuální.svg"
   inkscape:version="0.92.4 (5da689c313, 2019-01-14)"><metadata
     id="metadata8"><rdf:RDF><cc:Work
         rdf:about=""><dc:format>image/svg+xml</dc:format><dc:type
           rdf:resource="http://purl.org/dc/dcmitype/StillImage" /><dc:title /></cc:Work></rdf:RDF></metadata><defs
     id="defs6"><linearGradient
   x1="0"
   y1="0"
   x2="1"
   y2="0"
   gradientUnits="userSpaceOnUse"
   gradientTransform="matrix(269.20874,-155.42773,-155.42773,-269.20874,-0.0595703,256.40332)"
   spreadMethod="pad"
   id="linearGradient28"><stop
     style="stop-opacity:1;stop-color:#dddce9"
     offset="0"
     id="stop24" /><stop
     style="stop-opacity:1;stop-color:#46465f"
     offset="1"
     id="stop26" /></linearGradient><clipPath
   clipPathUnits="userSpaceOnUse"
   id="clipPath38"><path
     d="M 0,419.53 H 419.53 V 0 H 0 Z"
     id="path36"
     inkscape:connector-curvature="0" /></clipPath><clipPath
   clipPathUnits="userSpaceOnUse"
   id="clipPath62"><path
     d="M 242.487,242.822 H 403.632 V 35.0566 H 242.487 Z"
     id="path60"
     inkscape:connector-curvature="0" /></clipPath><clipPath
   clipPathUnits="userSpaceOnUse"
   id="clipPath66"><path
     d="m 242.487,242.822 h 98.617 v -36.047 h -98.617 z"
     id="path64"
     inkscape:connector-curvature="0" /></clipPath><clipPath
   clipPathUnits="userSpaceOnUse"
   id="clipPath70"><path
     d="M 242.487,185.863 H 403.632 V 149.535 H 242.487 Z"
     id="path68"
     inkscape:connector-curvature="0" /></clipPath><clipPath
   clipPathUnits="userSpaceOnUse"
   id="clipPath74"><path
     d="M 242.487,128.625 H 356.055 V 92.2969 H 242.487 Z"
     id="path72"
     inkscape:connector-curvature="0" /></clipPath><clipPath
   clipPathUnits="userSpaceOnUse"
   id="clipPath78"><path
     d="m 242.487,71.3838 h 72.001 V 35.0566 h -72.001 z"
     id="path76"
     inkscape:connector-curvature="0" /></clipPath><clipPath
   clipPathUnits="userSpaceOnUse"
   id="clipPath138"><path
     d="m 195.753,264.59 h 39.096 V 31.792 h -39.096 z"
     id="path136"
     inkscape:connector-curvature="0" /></clipPath><clipPath
   clipPathUnits="userSpaceOnUse"
   id="clipPath142"><path
     d="m 195.753,264.59 h 39.096 v -62.008 h -39.096 z"
     id="path140"
     inkscape:connector-curvature="0" /></clipPath><clipPath
   clipPathUnits="userSpaceOnUse"
   id="clipPath146"><path
     d="m 200.335,207.659 h 29.94 v -62.008 h -29.94 z"
     id="path144"
     inkscape:connector-curvature="0" /></clipPath><clipPath
   clipPathUnits="userSpaceOnUse"
   id="clipPath150"><path
     d="M 197.625,150.729 H 232.98 V 88.7217 h -35.355 z"
     id="path148"
     inkscape:connector-curvature="0" /></clipPath><clipPath
   clipPathUnits="userSpaceOnUse"
   id="clipPath154"><path
     d="m 201.463,93.7998 h 27.683 V 31.792 h -27.683 z"
     id="path152"
     inkscape:connector-curvature="0" /></clipPath><linearGradient
   x1="0"
   y1="0"
   x2="1"
   y2="0"
   gradientUnits="userSpaceOnUse"
   gradientTransform="matrix(-126.56689,-1.11e-5,-1.11e-5,126.56689,168.03271,143.0791)"
   spreadMethod="pad"
   id="linearGradient224"><stop
     style="stop-opacity:1;stop-color:#dddce9"
     offset="0"
     id="stop220" /><stop
     style="stop-opacity:1;stop-color:#46465f"
     offset="1"
     id="stop222" /></linearGradient><clipPath
   clipPathUnits="userSpaceOnUse"
   id="clipPath234"><path
     d="M 0,419.53 H 419.53 V 0 H 0 Z"
     id="path232"
     inkscape:connector-curvature="0" /></clipPath><clipPath
   clipPathUnits="userSpaceOnUse"
   id="clipPath242"><path
     d="m 95.3423,332.949 h 51.9807 v -60.23 H 95.3423 Z"
     id="path240"
     inkscape:connector-curvature="0" /></clipPath>








</defs><sodipodi:namedview
     pagecolor="#ffffff"
     bordercolor="#666666"
     borderopacity="1"
     objecttolerance="10"
     gridtolerance="10"
     guidetolerance="10"
     inkscape:pageopacity="0"
     inkscape:pageshadow="2"
     inkscape:window-width="1920"
     inkscape:window-height="1001"
     id="namedview4"
     showgrid="false"
     inkscape:zoom="1.6876027"
     inkscape:cx="316.4429"
     inkscape:cy="186.41983"
     inkscape:window-x="-9"
     inkscape:window-y="1491"
     inkscape:window-maximized="1"
     inkscape:current-layer="g10" /><g
     id="g10"
     inkscape:groupmode="layer"
     inkscape:label="AZKS-logo-dalsi"
     transform="matrix(1.3333333,0,0,-1.3333333,-24.639999,514.92532)"><path
       d="m 41.545,300.787 h -0.003 v -1.934 -25.598 h -4.788 v -4.626 H 20.328 c -1.02,-0.001 -1.846,-1.067 -1.846,-2.382 v 0 -0.011 H 18.48 V 33.43 c 0.001,-1.314 0.828,-2.379 1.847,-2.379 v 0 h 0.008 v -0.004 h 207.514 c 1.021,0.002 1.847,1.066 1.846,2.383 v 0 0.009 h 0.003 v 232.805 c -0.001,1.314 -0.828,2.38 -1.848,2.38 v 0 h -0.008 v 0.003 h -18.335 v 5.526 h -4.819 v 26.632 h -0.06 c -1.762,59.31 -41.741,85.371 -84.402,85.409 v 0 C 77.594,386.159 41.894,356.345 41.545,300.787 m 18.749,-1.936 c 0.125,43.105 30.316,64.595 63.07,64.62 v 0 c 31.701,-0.679 62.143,-20.735 62.571,-64.62 v 0 -24.698 h -4.451 v -5.526 H 64.777 v 4.626 h -4.483 z"
       style="fill:url(#linearGradient28);stroke:none"
       id="path30"
       inkscape:connector-curvature="0" /><path
       inkscape:connector-curvature="0"
       id="path42"
       style="fill:#f2b724;fill-opacity:1;fill-rule:nonzero;stroke:none"
       d="m 231.3838,260.8584 h -36.343 c -4.458,0 -8.072,-3.614 -8.072,-8.071 v -36.56 c 0,-4.457 3.614,-8.071 8.072,-8.071 h 36.343 c 4.458,0 8.071,3.614 8.071,8.071 v 36.56 c 0,4.457 -3.613,8.071 -8.071,8.071" /><path
       inkscape:connector-curvature="0"
       id="path46"
       style="fill:#f2b724;fill-opacity:1;fill-rule:nonzero;stroke:none"
       d="m 231.3838,204.2285 h -36.343 c -4.458,0 -8.072,-3.613 -8.072,-8.072 v -36.559 c 0,-4.457 3.614,-8.07 8.072,-8.07 h 36.343 c 4.458,0 8.071,3.613 8.071,8.07 v 36.559 c 0,4.459 -3.613,8.072 -8.071,8.072" /><path
       inkscape:connector-curvature="0"
       id="path50"
       style="fill:#f2b724;fill-opacity:1;fill-rule:nonzero;stroke:none"
       d="m 231.3838,147.5996 h -36.343 c -4.458,0 -8.072,-3.613 -8.072,-8.07 v -36.559 c 0,-4.459 3.614,-8.072 8.072,-8.072 h 36.343 c 4.458,0 8.071,3.613 8.071,8.072 v 36.559 c 0,4.457 -3.613,8.07 -8.071,8.07" /><path
       inkscape:connector-curvature="0"
       id="path54"
       style="fill:#f2b724;fill-opacity:1;fill-rule:nonzero;stroke:none"
       d="m 231.3838,90.9727 h -36.343 c -4.458,0 -8.072,-3.613 -8.072,-8.07 v -36.561 c 0,-4.457 3.614,-8.07 8.072,-8.07 h 36.343 c 4.458,0 8.071,3.613 8.071,8.07 v 36.561 c 0,4.457 -3.613,8.07 -8.071,8.07" /><g
       aria-label="SOCIACE"
       transform="scale(1,-1)"
       style="font-variant:normal;font-weight:bold;font-stretch:normal;font-size:30.94029999px;font-family:Calibri;-inkscape-font-specification:Calibri-Bold;writing-mode:lr-tb;fill:#46455e;fill-opacity:1;fill-rule:nonzero;stroke:none"
       id="text84"><path
         d="m 256.20447,-223.43884 q 0,1.54097 -0.57408,2.70426 -0.57409,1.16328 -1.55608,1.94887 -0.982,0.77049 -2.29635,1.16328 -1.31436,0.3928 -2.81001,0.3928 -1.01221,0 -1.88845,-0.16618 -0.86113,-0.16619 -1.52586,-0.3928 -0.66474,-0.24172 -1.11796,-0.49855 -0.43812,-0.25683 -0.63452,-0.45323 -0.1964,-0.19639 -0.28704,-0.55898 -0.0755,-0.37768 -0.0755,-1.07263 0,-0.46834 0.0302,-0.7856 0.0302,-0.31726 0.0906,-0.51365 0.0755,-0.1964 0.18129,-0.27194 0.12086,-0.0907 0.27194,-0.0907 0.2115,0 0.58919,0.25683 0.3928,0.24172 0.9971,0.54388 0.6043,0.30215 1.43522,0.55898 0.84602,0.24172 1.94888,0.24172 0.72516,0 1.29925,-0.16619 0.57408,-0.18129 0.96688,-0.49855 0.40791,-0.31726 0.61941,-0.78559 0.21151,-0.46833 0.21151,-1.04242 0,-0.66473 -0.36258,-1.13307 -0.36259,-0.48344 -0.95178,-0.84602 -0.57409,-0.37769 -1.31436,-0.69495 -0.74027,-0.33237 -1.52586,-0.69495 -0.7856,-0.36258 -1.52587,-0.81581 -0.74027,-0.46833 -1.32946,-1.10285 -0.57409,-0.64963 -0.93667,-1.52587 -0.36259,-0.87623 -0.36259,-2.09995 0,-1.405 0.51366,-2.46253 0.52877,-1.07264 1.40501,-1.76759 0.89134,-0.71005 2.08484,-1.05753 1.20861,-0.34747 2.55318,-0.34747 0.69495,0 1.3899,0.10575 0.69494,0.10576 1.29925,0.28705 0.6043,0.18129 1.07263,0.4079 0.46834,0.22661 0.61941,0.37769 0.15108,0.15108 0.1964,0.25683 0.0604,0.10575 0.0906,0.28704 0.0453,0.16619 0.0604,0.43812 0.0151,0.25683 0.0151,0.64963 0,0.43812 -0.0302,0.74027 -0.0151,0.30215 -0.0755,0.49855 -0.0453,0.1964 -0.15107,0.28704 -0.0907,0.0907 -0.25683,0.0907 -0.16618,0 -0.52877,-0.21151 -0.36258,-0.2115 -0.89134,-0.45323 -0.52877,-0.25682 -1.22372,-0.45322 -0.69494,-0.21151 -1.52586,-0.21151 -0.64963,0 -1.13307,0.16618 -0.48344,0.15108 -0.81581,0.43812 -0.31726,0.27194 -0.48344,0.66474 -0.15107,0.39279 -0.15107,0.83091 0,0.64963 0.34747,1.13307 0.36258,0.46834 0.95178,0.84602 0.6043,0.36259 1.35968,0.69495 0.75538,0.31726 1.54097,0.67984 0.78559,0.36259 1.54097,0.83092 0.75538,0.45323 1.34457,1.10285 0.5892,0.63452 0.95178,1.51076 0.36258,0.86113 0.36258,2.03952 z"
         style=""
         id="path3676" /><path
         d="m 275.16617,-227.57831 q 0,2.43232 -0.60431,4.35098 -0.6043,1.91866 -1.7978,3.26323 -1.19349,1.32947 -2.96108,2.03952 -1.75248,0.69495 -4.06394,0.69495 -2.28124,0 -3.98839,-0.58919 -1.69205,-0.60431 -2.82512,-1.82802 -1.13307,-1.22371 -1.70715,-3.11216 -0.55898,-1.88844 -0.55898,-4.47184 0,-2.37189 0.6043,-4.26033 0.6043,-1.90356 1.7978,-3.23302 1.1935,-1.32947 2.94598,-2.03952 1.76758,-0.71006 4.09415,-0.71006 2.22081,0 3.91286,0.58919 1.70715,0.5892 2.84022,1.81291 1.14817,1.22372 1.72226,3.09705 0.5892,1.85824 0.5892,4.39631 z m -4.16969,0.2115 q 0,-1.54097 -0.24172,-2.7949 -0.24172,-1.26903 -0.83092,-2.16038 -0.57409,-0.90645 -1.54097,-1.3899 -0.96689,-0.49855 -2.41721,-0.49855 -1.46544,0 -2.44743,0.55898 -0.98199,0.54388 -1.58629,1.46544 -0.60431,0.92156 -0.86113,2.16038 -0.24173,1.22371 -0.24173,2.5985 0,1.60141 0.24173,2.88555 0.24172,1.26903 0.8158,2.17549 0.57409,0.90645 1.54098,1.38989 0.96688,0.46834 2.43232,0.46834 1.46543,0 2.44742,-0.54387 0.98199,-0.54388 1.5863,-1.48055 0.6043,-0.93666 0.84602,-2.17548 0.25683,-1.25393 0.25683,-2.65894 z"
         style=""
         id="path3678" /><path
         d="m 290.34709,-220.53819 q 0,0.37769 -0.0302,0.64963 -0.0151,0.25683 -0.0604,0.45323 -0.0453,0.18129 -0.12086,0.31726 -0.0755,0.13596 -0.24172,0.31725 -0.16618,0.16619 -0.64962,0.43812 -0.46834,0.27194 -1.16329,0.52877 -0.67984,0.24172 -1.57118,0.4079 -0.87624,0.16619 -1.90356,0.16619 -2.0093,0 -3.62581,-0.61941 -1.61651,-0.61941 -2.74958,-1.84313 -1.13307,-1.23882 -1.73737,-3.08194 -0.6043,-1.84312 -0.6043,-4.29055 0,-2.49275 0.66473,-4.42652 0.66473,-1.93377 1.85823,-3.24813 1.1935,-1.31435 2.85533,-1.99419 1.67694,-0.67985 3.68625,-0.67985 0.81581,0 1.57118,0.13597 0.75538,0.13597 1.3899,0.36258 0.64963,0.21151 1.16328,0.49855 0.51366,0.28705 0.71006,0.49855 0.2115,0.1964 0.28704,0.33237 0.0755,0.13597 0.12086,0.34747 0.0453,0.21151 0.0604,0.49855 0.0302,0.28705 0.0302,0.71006 0,0.45323 -0.0302,0.77049 -0.0302,0.31726 -0.10575,0.51365 -0.0755,0.1964 -0.18129,0.28705 -0.10575,0.0906 -0.24172,0.0906 -0.22661,0 -0.57409,-0.25683 -0.34747,-0.27193 -0.90645,-0.58919 -0.54388,-0.33237 -1.31436,-0.5892 -0.75538,-0.27193 -1.81291,-0.27193 -1.16328,0 -2.08484,0.48344 -0.90646,0.46833 -1.55608,1.35968 -0.63452,0.87624 -0.96689,2.13017 -0.33236,1.25393 -0.33236,2.82511 0,1.72227 0.34747,2.9913 0.36258,1.25393 1.01221,2.06974 0.66473,0.81581 1.58629,1.22371 0.93667,0.3928 2.09995,0.3928 1.05753,0 1.82802,-0.24172 0.77049,-0.25683 1.31436,-0.55898 0.55898,-0.30215 0.90645,-0.54388 0.36258,-0.24172 0.55898,-0.24172 0.15108,0 0.24172,0.0604 0.0906,0.0604 0.15108,0.24173 0.0604,0.18129 0.0906,0.51365 0.0302,0.31726 0.0302,0.86113 z"
         style=""
         id="path3680" /><path
         d="m 295.51087,-218.12098 q 0,0.15108 -0.10575,0.27194 -0.0907,0.12086 -0.31726,0.1964 -0.22662,0.0755 -0.60431,0.12086 -0.37769,0.0453 -0.96688,0.0453 -0.57409,0 -0.96688,-0.0453 -0.37769,-0.0453 -0.60431,-0.12086 -0.22661,-0.0755 -0.33236,-0.1964 -0.0906,-0.12086 -0.0906,-0.27194 v -18.46144 q 0,-0.15108 0.0906,-0.27194 0.10575,-0.12086 0.33236,-0.1964 0.24172,-0.0755 0.61941,-0.12086 0.37769,-0.0453 0.95178,-0.0453 0.58919,0 0.96688,0.0453 0.37769,0.0453 0.60431,0.12086 0.22661,0.0755 0.31726,0.1964 0.10575,0.12086 0.10575,0.27194 z"
         style=""
         id="path3682" /><path
         d="m 314.12676,-219.05764 q 0.18129,0.54387 0.22662,0.86113 0.0453,0.31726 -0.12086,0.48344 -0.16619,0.15107 -0.5892,0.18129 -0.42301,0.0453 -1.16328,0.0453 -0.77049,0 -1.20861,-0.0302 -0.42301,-0.0151 -0.64962,-0.0755 -0.22662,-0.0755 -0.31726,-0.1964 -0.0906,-0.12086 -0.15108,-0.31726 l -1.31435,-3.92797 h -7.34228 l -1.23882,3.82222 q -0.0604,0.21151 -0.16619,0.36258 -0.0906,0.13597 -0.31726,0.22661 -0.2115,0.0755 -0.61941,0.10576 -0.39279,0.0302 -1.04242,0.0302 -0.69495,0 -1.08774,-0.0453 -0.3928,-0.0453 -0.54388,-0.21151 -0.15107,-0.18129 -0.10575,-0.49855 0.0453,-0.31725 0.22661,-0.84602 l 6.02792,-17.34349 q 0.0906,-0.25683 0.21151,-0.4079 0.12086,-0.16619 0.37769,-0.24172 0.27194,-0.0906 0.74027,-0.10576 0.46834,-0.0302 1.23882,-0.0302 0.89135,0 1.42011,0.0302 0.52877,0.0151 0.81581,0.10576 0.30215,0.0755 0.42301,0.24172 0.13597,0.16618 0.22662,0.45322 z m -8.97389,-14.33709 h -0.0151 l -2.76468,8.30917 h 5.54447 z"
         style=""
         id="path3684" /><path
         d="m 328.35106,-220.53819 q 0,0.37769 -0.0302,0.64963 -0.0151,0.25683 -0.0604,0.45323 -0.0453,0.18129 -0.12086,0.31726 -0.0755,0.13596 -0.24172,0.31725 -0.16618,0.16619 -0.64963,0.43812 -0.46833,0.27194 -1.16328,0.52877 -0.67984,0.24172 -1.57119,0.4079 -0.87624,0.16619 -1.90355,0.16619 -2.00931,0 -3.62582,-0.61941 -1.61651,-0.61941 -2.74957,-1.84313 -1.13307,-1.23882 -1.73737,-3.08194 -0.60431,-1.84312 -0.60431,-4.29055 0,-2.49275 0.66474,-4.42652 0.66473,-1.93377 1.85823,-3.24813 1.1935,-1.31435 2.85533,-1.99419 1.67694,-0.67985 3.68624,-0.67985 0.81581,0 1.57119,0.13597 0.75538,0.13597 1.3899,0.36258 0.64962,0.21151 1.16328,0.49855 0.51366,0.28705 0.71006,0.49855 0.2115,0.1964 0.28704,0.33237 0.0755,0.13597 0.12086,0.34747 0.0453,0.21151 0.0604,0.49855 0.0302,0.28705 0.0302,0.71006 0,0.45323 -0.0302,0.77049 -0.0302,0.31726 -0.10575,0.51365 -0.0755,0.1964 -0.18129,0.28705 -0.10576,0.0906 -0.24172,0.0906 -0.22662,0 -0.57409,-0.25683 -0.34748,-0.27193 -0.90646,-0.58919 -0.54387,-0.33237 -1.31435,-0.5892 -0.75538,-0.27193 -1.81291,-0.27193 -1.16329,0 -2.08485,0.48344 -0.90645,0.46833 -1.55608,1.35968 -0.63451,0.87624 -0.96688,2.13017 -0.33237,1.25393 -0.33237,2.82511 0,1.72227 0.34748,2.9913 0.36258,1.25393 1.0122,2.06974 0.66474,0.81581 1.5863,1.22371 0.93667,0.3928 2.09995,0.3928 1.05753,0 1.82802,-0.24172 0.77048,-0.25683 1.31435,-0.55898 0.55898,-0.30215 0.90646,-0.54388 0.36258,-0.24172 0.55898,-0.24172 0.15107,0 0.24172,0.0604 0.0907,0.0604 0.15108,0.24173 0.0604,0.18129 0.0906,0.51365 0.0302,0.31726 0.0302,0.86113 z"
         style=""
         id="path3686" /><path
         d="m 341.11394,-219.13318 q 0,0.43812 -0.0453,0.74027 -0.0302,0.28704 -0.10575,0.46833 -0.0755,0.18129 -0.1964,0.27194 -0.10575,0.0755 -0.24172,0.0755 h -9.81992 q -0.49855,0 -0.84603,-0.28705 -0.33236,-0.30215 -0.33236,-0.96688 v -17.04134 q 0,-0.66473 0.33236,-0.95177 0.34748,-0.30216 0.84603,-0.30216 h 9.75949 q 0.13597,0 0.24172,0.0755 0.10575,0.0755 0.18129,0.27194 0.0755,0.18129 0.10575,0.48344 0.0453,0.28704 0.0453,0.74027 0,0.42301 -0.0453,0.72516 -0.0302,0.28705 -0.10575,0.46834 -0.0755,0.18129 -0.18129,0.27194 -0.10575,0.0755 -0.24172,0.0755 h -6.9797 v 4.77399 h 5.90706 q 0.13597,0 0.24172,0.0907 0.12086,0.0755 0.1964,0.25683 0.0755,0.16618 0.10575,0.46833 0.0453,0.28705 0.0453,0.71006 0,0.43812 -0.0453,0.72516 -0.0302,0.28705 -0.10575,0.46834 -0.0755,0.16618 -0.1964,0.24172 -0.10575,0.0755 -0.24172,0.0755 h -5.90706 v 5.51426 h 7.04013 q 0.13597,0 0.24172,0.0906 0.12086,0.0755 0.1964,0.25683 0.0755,0.18129 0.10575,0.48344 0.0453,0.28705 0.0453,0.72517 z"
         style=""
         id="path3688" /></g><g
       aria-label="ÁMKOVÝCH A"
       transform="scale(1,-1)"
       style="font-variant:normal;font-weight:bold;font-stretch:normal;font-size:30.94029999px;font-family:Calibri;-inkscape-font-specification:Calibri-Bold;writing-mode:lr-tb;fill:#46455e;fill-opacity:1;fill-rule:nonzero;stroke:none"
       id="text96"><path
         d="m 260.63099,-161.81744 q 0.18129,0.54387 0.22661,0.86113 0.0453,0.31726 -0.12086,0.48344 -0.16618,0.15108 -0.58919,0.18129 -0.42301,0.0453 -1.16328,0.0453 -0.77049,0 -1.20861,-0.0302 -0.42301,-0.0151 -0.64963,-0.0755 -0.22661,-0.0755 -0.31725,-0.19639 -0.0907,-0.12087 -0.15108,-0.31726 l -1.31436,-3.92797 h -7.34228 l -1.23882,3.82221 q -0.0604,0.21151 -0.16618,0.36258 -0.0906,0.13597 -0.31726,0.22662 -0.21151,0.0755 -0.61941,0.10575 -0.3928,0.0302 -1.04242,0.0302 -0.69495,0 -1.08775,-0.0453 -0.39279,-0.0453 -0.54387,-0.2115 -0.15107,-0.18129 -0.10575,-0.49855 0.0453,-0.31726 0.22661,-0.84603 l 6.02792,-17.34348 q 0.0907,-0.25683 0.21151,-0.40791 0.12086,-0.16618 0.37769,-0.24172 0.27193,-0.0906 0.74027,-0.10575 0.46833,-0.0302 1.23882,-0.0302 0.89134,0 1.42011,0.0302 0.52876,0.0151 0.81581,0.10575 0.30215,0.0755 0.42301,0.24172 0.13597,0.16618 0.22661,0.45323 z m -8.97389,-14.33708 h -0.0151 l -2.76469,8.30916 h 5.54448 z m 1.04242,-9.00411 q 0.1964,-0.22662 0.37769,-0.36259 0.19639,-0.13596 0.45322,-0.2115 0.27194,-0.0755 0.64963,-0.0907 0.37769,-0.0302 0.93667,-0.0302 0.69495,0 1.07264,0.0906 0.39279,0.0906 0.52876,0.24172 0.15108,0.13597 0.0755,0.31726 -0.0755,0.18129 -0.28705,0.37769 l -3.35388,3.02152 q -0.15107,0.13596 -0.31725,0.24172 -0.15108,0.0906 -0.37769,0.16618 -0.22662,0.0604 -0.54388,0.0907 -0.31726,0.0302 -0.78559,0.0302 -0.51366,0 -0.83092,-0.0453 -0.30215,-0.0453 -0.43812,-0.13597 -0.12086,-0.10575 -0.0906,-0.25683 0.0302,-0.15107 0.21151,-0.36258 z m -4.48695,5.27254 z"
         style=""
         id="path3691" /><path
         d="m 284.47824,-160.88077 q 0,0.15107 -0.0907,0.27193 -0.0755,0.12087 -0.30215,0.1964 -0.21151,0.0755 -0.57409,0.12086 -0.36258,0.0453 -0.92156,0.0453 -0.54387,0 -0.90645,-0.0453 -0.36258,-0.0453 -0.57409,-0.12086 -0.21151,-0.0755 -0.30215,-0.1964 -0.0906,-0.12086 -0.0906,-0.27193 v -15.90827 h -0.0302 l -5.66534,15.89316 q -0.0604,0.1964 -0.1964,0.33237 -0.13597,0.12086 -0.37769,0.1964 -0.22661,0.0755 -0.58919,0.0906 -0.36259,0.0302 -0.87624,0.0302 -0.51366,0 -0.87624,-0.0453 -0.36258,-0.0302 -0.6043,-0.10575 -0.22662,-0.0906 -0.36259,-0.21151 -0.13596,-0.12086 -0.18129,-0.28704 l -5.46894,-15.89316 h -0.0302 v 15.90827 q 0,0.15107 -0.0906,0.27193 -0.0755,0.12087 -0.30215,0.1964 -0.22661,0.0755 -0.58919,0.12086 -0.34748,0.0453 -0.90646,0.0453 -0.54387,0 -0.90645,-0.0453 -0.36258,-0.0453 -0.5892,-0.12086 -0.2115,-0.0755 -0.30215,-0.1964 -0.0755,-0.12086 -0.0755,-0.27193 v -17.41903 q 0,-0.77048 0.40791,-1.17839 0.4079,-0.4079 1.08774,-0.4079 h 2.59851 q 0.69494,0 1.19349,0.12086 0.49855,0.10575 0.86113,0.37769 0.36259,0.25683 0.60431,0.69495 0.24172,0.42301 0.42301,1.05753 l 4.23012,11.64793 h 0.0604 l 4.38119,-11.61772 q 0.1964,-0.63452 0.42302,-1.07264 0.24172,-0.43812 0.54387,-0.71005 0.31726,-0.27194 0.74027,-0.37769 0.42301,-0.12086 0.98199,-0.12086 h 2.67404 q 0.4079,0 0.69495,0.10575 0.30215,0.10575 0.48344,0.31726 0.1964,0.1964 0.28704,0.49855 0.10576,0.28704 0.10576,0.66473 z"
         style=""
         id="path3693" /><path
         d="m 301.34371,-160.92609 q 0,0.16618 -0.0906,0.30215 -0.0755,0.12086 -0.31726,0.2115 -0.22661,0.0755 -0.63451,0.12086 -0.40791,0.0453 -1.02732,0.0453 -0.98199,0 -1.42011,-0.0755 -0.42301,-0.0755 -0.61941,-0.22661 -0.18129,-0.15108 -0.28704,-0.36259 l -5.90706,-9.27604 v 9.27604 q 0,0.16619 -0.0906,0.28705 -0.0906,0.12086 -0.31726,0.2115 -0.22661,0.0755 -0.6043,0.12086 -0.37769,0.0453 -0.96688,0.0453 -0.57409,0 -0.96689,-0.0453 -0.37769,-0.0453 -0.6043,-0.12086 -0.22661,-0.0906 -0.33237,-0.2115 -0.0906,-0.12086 -0.0906,-0.28705 v -18.41612 q 0,-0.16619 0.0906,-0.28705 0.10576,-0.12086 0.33237,-0.19639 0.22661,-0.0755 0.6043,-0.12086 0.3928,-0.0453 0.96689,-0.0453 0.58919,0 0.96688,0.0453 0.37769,0.0453 0.6043,0.12086 0.22662,0.0755 0.31726,0.19639 0.0906,0.12086 0.0906,0.28705 v 8.32427 l 5.72577,-8.30916 q 0.10575,-0.1964 0.25682,-0.31726 0.15108,-0.13597 0.3928,-0.21151 0.24172,-0.0755 0.61941,-0.10575 0.37769,-0.0302 0.96689,-0.0302 0.6043,0 0.9971,0.0453 0.39279,0.0453 0.61941,0.13596 0.24172,0.0755 0.33236,0.1964 0.0906,0.12086 0.0906,0.27194 0,0.25683 -0.13597,0.52876 -0.13597,0.27194 -0.51366,0.86113 l -5.36318,7.02502 5.84662,8.83793 q 0.33237,0.61941 0.3928,0.83092 0.0755,0.1964 0.0755,0.31726 z"
         style=""
         id="path3695" /><path
         d="m 318.54137,-170.33811 q 0,2.43232 -0.60431,4.35098 -0.6043,1.91866 -1.7978,3.26324 -1.1935,1.32946 -2.96108,2.03952 -1.75248,0.69495 -4.06394,0.69495 -2.28124,0 -3.9884,-0.5892 -1.69204,-0.6043 -2.82511,-1.82802 -1.13307,-1.22371 -1.70716,-3.11215 -0.55898,-1.88845 -0.55898,-4.47184 0,-2.37189 0.60431,-4.26034 0.6043,-1.90355 1.7978,-3.23302 1.1935,-1.32946 2.94597,-2.03952 1.76759,-0.71006 4.09415,-0.71006 2.22082,0 3.91286,0.5892 1.70716,0.58919 2.84023,1.81291 1.14817,1.22371 1.72226,3.09705 0.5892,1.85823 0.5892,4.3963 z m -4.16969,0.21151 q 0,-1.54098 -0.24172,-2.7949 -0.24173,-1.26904 -0.83092,-2.16039 -0.57409,-0.90645 -1.54097,-1.38989 -0.96689,-0.49855 -2.41721,-0.49855 -1.46544,0 -2.44743,0.55898 -0.98199,0.54387 -1.58629,1.46543 -0.60431,0.92156 -0.86114,2.16038 -0.24172,1.22372 -0.24172,2.59851 0,1.6014 0.24172,2.88554 0.24173,1.26904 0.81581,2.17549 0.57409,0.90646 1.54097,1.3899 0.96689,0.46833 2.43232,0.46833 1.46544,0 2.44743,-0.54387 0.98199,-0.54387 1.58629,-1.48054 0.60431,-0.93667 0.84603,-2.17549 0.25683,-1.25393 0.25683,-2.65893 z"
         style=""
         id="path3697" /><path
         d="m 329.4105,-161.03185 q -0.0755,0.25683 -0.1964,0.42301 -0.12086,0.15108 -0.3928,0.24173 -0.27193,0.0755 -0.74027,0.0906 -0.46833,0.0302 -1.22371,0.0302 -0.6043,0 -1.04242,-0.0151 -0.42302,0 -0.72517,-0.0302 -0.30215,-0.0302 -0.49855,-0.0906 -0.18129,-0.0604 -0.31726,-0.15108 -0.12086,-0.0906 -0.19639,-0.2115 -0.0604,-0.13597 -0.12087,-0.33237 l -5.81641,-17.32838 q -0.18129,-0.54387 -0.22661,-0.86113 -0.0302,-0.31726 0.15107,-0.46834 0.1964,-0.16618 0.64963,-0.19639 0.45323,-0.0453 1.26903,-0.0453 0.69495,0 1.08775,0.0302 0.3928,0.0302 0.6043,0.10575 0.21151,0.0755 0.28705,0.22661 0.0906,0.15108 0.16618,0.37769 l 4.75888,15.07736 h 0.0151 l 4.66824,-15.00182 q 0.0604,-0.25683 0.15108,-0.4079 0.0906,-0.16619 0.30215,-0.25683 0.22661,-0.0907 0.63451,-0.12086 0.40791,-0.0302 1.11796,-0.0302 0.69495,0 1.07264,0.0453 0.3928,0.0453 0.52877,0.22661 0.15107,0.16618 0.0906,0.48344 -0.0453,0.31726 -0.22661,0.84602 z"
         style=""
         id="path3699" /><path
         d="m 344.19741,-167.75471 v 6.87394 q 0,0.15107 -0.10575,0.27193 -0.0906,0.12087 -0.31726,0.1964 -0.22661,0.0755 -0.61941,0.12086 -0.37769,0.0453 -0.95178,0.0453 -0.58919,0 -0.96688,-0.0453 -0.37769,-0.0453 -0.61941,-0.12086 -0.22662,-0.0755 -0.31726,-0.1964 -0.0907,-0.12086 -0.0907,-0.27193 v -6.87394 l -5.34808,-10.65084 q -0.28704,-0.55898 -0.37769,-0.86113 -0.0755,-0.31726 0.0906,-0.46834 0.18129,-0.16618 0.64962,-0.19639 0.46834,-0.0453 1.29926,-0.0453 0.69494,0 1.10285,0.0302 0.42301,0.0302 0.66473,0.12086 0.24172,0.0755 0.34748,0.2115 0.12086,0.13597 0.22661,0.34748 l 2.17549,4.8042 q 0.31726,0.69495 0.61941,1.46544 0.31726,0.77048 0.63452,1.61651 h 0.0302 q 0.28705,-0.81581 0.5892,-1.5863 0.30215,-0.77048 0.58919,-1.46543 l 2.14528,-4.77399 q 0.0755,-0.24172 0.18129,-0.37769 0.12086,-0.15108 0.34747,-0.24172 0.22662,-0.0907 0.61941,-0.12086 0.3928,-0.0302 1.04242,-0.0302 0.86114,0 1.32947,0.0453 0.48344,0.0302 0.64963,0.19639 0.18129,0.15108 0.0906,0.46834 -0.0906,0.31726 -0.36258,0.86113 z m -0.37769,-17.40392 q 0.1964,-0.22662 0.37769,-0.36259 0.1964,-0.13596 0.45323,-0.2115 0.27193,-0.0755 0.64962,-0.0907 0.37769,-0.0302 0.93667,-0.0302 0.69495,0 1.07264,0.0906 0.3928,0.0906 0.52876,0.24172 0.15108,0.13597 0.0755,0.31726 -0.0755,0.18129 -0.28704,0.37769 l -3.35388,3.02152 q -0.15108,0.13596 -0.31726,0.24172 -0.15108,0.0906 -0.37769,0.16618 -0.22661,0.0604 -0.54387,0.0907 -0.31726,0.0302 -0.7856,0.0302 -0.51365,0 -0.83091,-0.0453 -0.30215,-0.0453 -0.43812,-0.13597 -0.12086,-0.10575 -0.0906,-0.25683 0.0302,-0.15107 0.21151,-0.36258 z m -4.48695,5.27254 z"
         style=""
         id="path3701" /><path
         d="m 363.01347,-163.29798 q 0,0.37769 -0.0302,0.64962 -0.0151,0.25683 -0.0604,0.45323 -0.0453,0.18129 -0.12087,0.31726 -0.0755,0.13597 -0.24172,0.31726 -0.16618,0.16618 -0.64962,0.43812 -0.46834,0.27193 -1.16328,0.52876 -0.67984,0.24172 -1.57119,0.40791 -0.87624,0.16618 -1.90356,0.16618 -2.0093,0 -3.62581,-0.61941 -1.61651,-0.61941 -2.74958,-1.84312 -1.13307,-1.23882 -1.73737,-3.08195 -0.6043,-1.84312 -0.6043,-4.29055 0,-2.49275 0.66473,-4.42651 0.66473,-1.93377 1.85823,-3.24813 1.1935,-1.31436 2.85533,-1.9942 1.67694,-0.67984 3.68625,-0.67984 0.81581,0 1.57119,0.13597 0.75537,0.13597 1.38989,0.36258 0.64963,0.2115 1.16329,0.49855 0.51365,0.28704 0.71005,0.49855 0.21151,0.1964 0.28704,0.33236 0.0755,0.13597 0.12087,0.34748 0.0453,0.2115 0.0604,0.49855 0.0302,0.28704 0.0302,0.71005 0,0.45323 -0.0302,0.77049 -0.0302,0.31726 -0.10576,0.51366 -0.0755,0.1964 -0.18129,0.28704 -0.10575,0.0907 -0.24172,0.0907 -0.22661,0 -0.57409,-0.25683 -0.34747,-0.27194 -0.90645,-0.5892 -0.54387,-0.33236 -1.31436,-0.58919 -0.75538,-0.27194 -1.81291,-0.27194 -1.16328,0 -2.08484,0.48344 -0.90646,0.46834 -1.55608,1.35968 -0.63452,0.87624 -0.96689,2.13017 -0.33236,1.25393 -0.33236,2.82512 0,1.72226 0.34747,2.9913 0.36258,1.25392 1.01221,2.06973 0.66473,0.81581 1.58629,1.22372 0.93667,0.39279 2.09996,0.39279 1.05752,0 1.82801,-0.24172 0.77049,-0.25683 1.31436,-0.55898 0.55898,-0.30215 0.90645,-0.54387 0.36259,-0.24172 0.55898,-0.24172 0.15108,0 0.24172,0.0604 0.0906,0.0604 0.15108,0.24172 0.0604,0.18129 0.0906,0.51366 0.0302,0.31726 0.0302,0.86113 z"
         style=""
         id="path3703" /><path
         d="m 379.4475,-160.88077 q 0,0.15107 -0.10576,0.27193 -0.0906,0.12087 -0.31726,0.1964 -0.22661,0.0755 -0.6043,0.12086 -0.37769,0.0453 -0.95177,0.0453 -0.5892,0 -0.982,-0.0453 -0.37769,-0.0453 -0.6043,-0.12086 -0.21151,-0.0755 -0.31726,-0.1964 -0.0906,-0.12086 -0.0906,-0.27193 v -7.90126 h -7.31207 v 7.90126 q 0,0.15107 -0.0906,0.27193 -0.0907,0.12087 -0.31726,0.1964 -0.22661,0.0755 -0.6043,0.12086 -0.37769,0.0453 -0.96689,0.0453 -0.57409,0 -0.96688,-0.0453 -0.37769,-0.0453 -0.60431,-0.12086 -0.22661,-0.0755 -0.33236,-0.1964 -0.0906,-0.12086 -0.0906,-0.27193 v -18.46145 q 0,-0.15108 0.0906,-0.27194 0.10575,-0.12086 0.33236,-0.19639 0.22662,-0.0755 0.60431,-0.12086 0.39279,-0.0453 0.96688,-0.0453 0.5892,0 0.96689,0.0453 0.37769,0.0453 0.6043,0.12086 0.22661,0.0755 0.31726,0.19639 0.0906,0.12086 0.0906,0.27194 v 7.1761 h 7.31207 v -7.1761 q 0,-0.15108 0.0906,-0.27194 0.10575,-0.12086 0.31726,-0.19639 0.22661,-0.0755 0.6043,-0.12086 0.3928,-0.0453 0.982,-0.0453 0.57408,0 0.95177,0.0453 0.37769,0.0453 0.6043,0.12086 0.22662,0.0755 0.31726,0.19639 0.10576,0.12086 0.10576,0.27194 z"
         style=""
         id="path3705" /><path
         d="m 403.37716,-161.81744 q 0.18129,0.54387 0.22661,0.86113 0.0453,0.31726 -0.12086,0.48344 -0.16618,0.15108 -0.58919,0.18129 -0.42301,0.0453 -1.16328,0.0453 -0.77049,0 -1.20861,-0.0302 -0.42301,-0.0151 -0.64963,-0.0755 -0.22661,-0.0755 -0.31725,-0.19639 -0.0907,-0.12087 -0.15108,-0.31726 l -1.31436,-3.92797 h -7.34228 l -1.23882,3.82221 q -0.0604,0.21151 -0.16618,0.36258 -0.0906,0.13597 -0.31726,0.22662 -0.21151,0.0755 -0.61941,0.10575 -0.3928,0.0302 -1.04242,0.0302 -0.69495,0 -1.08775,-0.0453 -0.39279,-0.0453 -0.54387,-0.2115 -0.15107,-0.18129 -0.10575,-0.49855 0.0453,-0.31726 0.22661,-0.84603 l 6.02792,-17.34348 q 0.0907,-0.25683 0.21151,-0.40791 0.12086,-0.16618 0.37769,-0.24172 0.27193,-0.0906 0.74027,-0.10575 0.46833,-0.0302 1.23882,-0.0302 0.89134,0 1.42011,0.0302 0.52876,0.0151 0.81581,0.10575 0.30215,0.0755 0.42301,0.24172 0.13597,0.16618 0.22661,0.45323 z m -8.97389,-14.33708 h -0.0151 l -2.76469,8.30916 h 5.54448 z"
         style=""
         id="path3707" /></g><g
       aria-label="LÍČOVÝCH"
       transform="scale(1,-1)"
       style="font-variant:normal;font-weight:bold;font-stretch:normal;font-size:30.94029999px;font-family:Calibri;-inkscape-font-specification:Calibri-Bold;writing-mode:lr-tb;fill:#46455e;fill-opacity:1;fill-rule:nonzero;stroke:none"
       id="text108"><path
         d="m 255.35845,-104.76043 q 0,0.45322 -0.0453,0.77048 -0.0302,0.30215 -0.10576,0.51366 -0.0755,0.1964 -0.19639,0.28704 -0.10576,0.0906 -0.25683,0.0906 h -8.95879 q -0.49855,0 -0.84603,-0.28705 -0.33236,-0.30215 -0.33236,-0.96688 v -17.75139 q 0,-0.15108 0.0906,-0.27194 0.10576,-0.12086 0.33237,-0.1964 0.22661,-0.0755 0.6043,-0.12086 0.3928,-0.0453 0.96689,-0.0453 0.58919,0 0.96688,0.0453 0.37769,0.0453 0.6043,0.12086 0.22662,0.0755 0.31726,0.1964 0.10576,0.12086 0.10576,0.27194 v 15.72698 h 6.14878 q 0.15107,0 0.25683,0.0906 0.12086,0.0755 0.19639,0.27194 0.0755,0.18129 0.10576,0.49855 0.0453,0.30215 0.0453,0.75538 z"
         style=""
         id="path3710" /><path
         d="m 260.02233,-103.64247 q 0,0.15107 -0.10575,0.27193 -0.0906,0.12086 -0.31726,0.1964 -0.22662,0.0755 -0.60431,0.12086 -0.37769,0.0453 -0.96688,0.0453 -0.57409,0 -0.96689,-0.0453 -0.37768,-0.0453 -0.6043,-0.12086 -0.22661,-0.0755 -0.33236,-0.1964 -0.0906,-0.12086 -0.0906,-0.27193 v -18.46145 q 0,-0.15108 0.0906,-0.27194 0.10575,-0.12086 0.33236,-0.1964 0.24172,-0.0755 0.61941,-0.12086 0.37769,-0.0453 0.95178,-0.0453 0.58919,0 0.96688,0.0453 0.37769,0.0453 0.60431,0.12086 0.22661,0.0755 0.31726,0.1964 0.10575,0.12086 0.10575,0.27194 z m -1.05753,-24.27787 q 0.1964,-0.22661 0.37769,-0.36258 0.1964,-0.13597 0.45322,-0.2115 0.27194,-0.0755 0.64963,-0.0907 0.37769,-0.0302 0.93667,-0.0302 0.69495,0 1.07264,0.0906 0.39279,0.0907 0.52876,0.24172 0.15108,0.13597 0.0755,0.31726 -0.0755,0.18129 -0.28704,0.37769 l -3.35388,3.02151 q -0.15108,0.13597 -0.31726,0.24172 -0.15108,0.0907 -0.37769,0.16619 -0.22662,0.0604 -0.54388,0.0906 -0.31725,0.0302 -0.78559,0.0302 -0.51366,0 -0.83092,-0.0453 -0.30215,-0.0453 -0.43811,-0.13597 -0.12087,-0.10576 -0.0906,-0.25683 0.0302,-0.15108 0.21151,-0.36258 z m -4.48695,5.27254 z"
         style=""
         id="path3712" /><path
         d="m 276.14549,-106.05969 q 0,0.37769 -0.0302,0.64963 -0.0151,0.25683 -0.0604,0.45323 -0.0453,0.18129 -0.12086,0.31726 -0.0755,0.13596 -0.24172,0.31725 -0.16618,0.16619 -0.64962,0.43812 -0.46834,0.27194 -1.16329,0.52877 -0.67984,0.24172 -1.57118,0.4079 -0.87624,0.16619 -1.90356,0.16619 -2.0093,0 -3.62581,-0.61941 -1.61651,-0.61941 -2.74958,-1.84313 -1.13307,-1.23882 -1.73737,-3.08194 -0.6043,-1.84312 -0.6043,-4.29055 0,-2.49275 0.66473,-4.42652 0.66473,-1.93377 1.85823,-3.24813 1.1935,-1.31435 2.85533,-1.99419 1.67694,-0.67984 3.68625,-0.67984 0.81581,0 1.57119,0.13596 0.75537,0.13597 1.38989,0.36259 0.64963,0.2115 1.16328,0.49854 0.51366,0.28705 0.71006,0.49855 0.21151,0.1964 0.28704,0.33237 0.0755,0.13597 0.12086,0.34748 0.0453,0.2115 0.0604,0.49854 0.0302,0.28705 0.0302,0.71006 0,0.45323 -0.0302,0.77049 -0.0302,0.31726 -0.10575,0.51365 -0.0755,0.1964 -0.18129,0.28705 -0.10575,0.0906 -0.24172,0.0906 -0.22661,0 -0.57409,-0.25683 -0.34747,-0.27193 -0.90645,-0.58919 -0.54387,-0.33237 -1.31436,-0.5892 -0.75538,-0.27193 -1.81291,-0.27193 -1.16328,0 -2.08484,0.48344 -0.90646,0.46833 -1.55608,1.35968 -0.63452,0.87624 -0.96689,2.13017 -0.33236,1.25393 -0.33236,2.82511 0,1.72227 0.34747,2.9913 0.36258,1.25393 1.01221,2.06974 0.66473,0.81581 1.58629,1.22371 0.93667,0.3928 2.09995,0.3928 1.05753,0 1.82802,-0.24172 0.77049,-0.25683 1.31436,-0.55898 0.55898,-0.30215 0.90645,-0.54387 0.36258,-0.24173 0.55898,-0.24173 0.15108,0 0.24172,0.0604 0.0906,0.0604 0.15108,0.24173 0.0604,0.18129 0.0906,0.51365 0.0302,0.31726 0.0302,0.86113 z m -6.14878,-17.978 q -0.48344,0 -0.81581,-0.0151 -0.33237,-0.0151 -0.57409,-0.0755 -0.22661,-0.0755 -0.4079,-0.1964 -0.16618,-0.13596 -0.36258,-0.33236 l -2.9913,-3.23302 q -0.1964,-0.22662 -0.24172,-0.36258 -0.0302,-0.15108 0.0906,-0.22662 0.13597,-0.0755 0.45323,-0.10575 0.33237,-0.0302 0.84602,-0.0302 0.61941,0 1.01221,0.0302 0.3928,0.0151 0.61941,0.0755 0.24172,0.0453 0.36258,0.13597 0.13597,0.0906 0.25683,0.22661 l 1.78269,2.06974 1.85824,-2.03953 q 0.12086,-0.15107 0.24172,-0.24172 0.13596,-0.10575 0.36258,-0.15107 0.24172,-0.0604 0.61941,-0.0755 0.37769,-0.0302 1.01221,-0.0302 0.51365,0 0.8158,0.0453 0.30216,0.0302 0.42302,0.12086 0.13596,0.0755 0.0906,0.22661 -0.0302,0.13597 -0.1964,0.33237 l -2.94597,3.23302 q -0.16619,0.1964 -0.36258,0.31726 -0.1964,0.12086 -0.46834,0.19639 -0.25683,0.0604 -0.61941,0.0906 -0.34747,0.0151 -0.86113,0.0151 z m -6.93437,1.38989 z"
         style=""
         id="path3714" /><path
         d="m 294.68639,-113.09981 q 0,2.43232 -0.60431,4.35098 -0.6043,1.91866 -1.7978,3.26323 -1.1935,1.32947 -2.96108,2.03952 -1.75248,0.69495 -4.06394,0.69495 -2.28124,0 -3.9884,-0.58919 -1.69204,-0.60431 -2.82511,-1.82802 -1.13307,-1.22371 -1.70716,-3.11216 -0.55898,-1.88844 -0.55898,-4.47184 0,-2.37189 0.60431,-4.26033 0.6043,-1.90356 1.7978,-3.23302 1.1935,-1.32947 2.94597,-2.03952 1.76759,-0.71006 4.09415,-0.71006 2.22082,0 3.91286,0.5892 1.70716,0.58919 2.84023,1.8129 1.14817,1.22372 1.72226,3.09706 0.5892,1.85823 0.5892,4.3963 z m -4.16969,0.2115 q 0,-1.54097 -0.24172,-2.7949 -0.24173,-1.26903 -0.83092,-2.16038 -0.57409,-0.90645 -1.54097,-1.3899 -0.96689,-0.49855 -2.41721,-0.49855 -1.46544,0 -2.44743,0.55898 -0.98199,0.54388 -1.58629,1.46544 -0.60431,0.92156 -0.86114,2.16038 -0.24172,1.22371 -0.24172,2.5985 0,1.60141 0.24172,2.88555 0.24172,1.26903 0.81581,2.17549 0.57409,0.90645 1.54097,1.38989 0.96689,0.46834 2.43232,0.46834 1.46544,0 2.44743,-0.54387 0.98199,-0.54388 1.58629,-1.48054 0.60431,-0.93667 0.84603,-2.17549 0.25683,-1.25393 0.25683,-2.65894 z"
         style=""
         id="path3716" /><path
         d="m 305.55552,-103.79355 q -0.0755,0.25683 -0.1964,0.42301 -0.12086,0.15108 -0.3928,0.24172 -0.27193,0.0755 -0.74027,0.0907 -0.46833,0.0302 -1.22371,0.0302 -0.60431,0 -1.04242,-0.0151 -0.42302,0 -0.72517,-0.0302 -0.30215,-0.0302 -0.49855,-0.0906 -0.18129,-0.0604 -0.31726,-0.15108 -0.12086,-0.0906 -0.1964,-0.21151 -0.0604,-0.13596 -0.12086,-0.33236 l -5.81641,-17.32838 q -0.18129,-0.54388 -0.22661,-0.86114 -0.0302,-0.31725 0.15107,-0.46833 0.1964,-0.16618 0.64963,-0.1964 0.45323,-0.0453 1.26903,-0.0453 0.69495,0 1.08775,0.0302 0.3928,0.0302 0.6043,0.10576 0.21151,0.0755 0.28705,0.22661 0.0906,0.15108 0.16618,0.37769 l 4.75888,15.07735 h 0.0151 l 4.66824,-15.00181 q 0.0604,-0.25683 0.15107,-0.40791 0.0907,-0.16618 0.30216,-0.25683 0.22661,-0.0906 0.63451,-0.12086 0.40791,-0.0302 1.11796,-0.0302 0.69495,0 1.07264,0.0453 0.3928,0.0453 0.52877,0.22662 0.15107,0.16618 0.0906,0.48344 -0.0453,0.31726 -0.22661,0.84602 z"
         style=""
         id="path3718" /><path
         d="m 320.34246,-110.51642 v 6.87395 q 0,0.15107 -0.10575,0.27193 -0.0907,0.12086 -0.31726,0.1964 -0.22661,0.0755 -0.61941,0.12086 -0.37769,0.0453 -0.95178,0.0453 -0.58919,0 -0.96688,-0.0453 -0.37769,-0.0453 -0.61941,-0.12086 -0.22662,-0.0755 -0.31726,-0.1964 -0.0906,-0.12086 -0.0906,-0.27193 v -6.87395 l -5.34808,-10.65083 q -0.28704,-0.55898 -0.37769,-0.86114 -0.0755,-0.31725 0.0906,-0.46833 0.18129,-0.16618 0.64962,-0.1964 0.46834,-0.0453 1.29926,-0.0453 0.69494,0 1.10285,0.0302 0.42301,0.0302 0.66473,0.12086 0.24172,0.0755 0.34748,0.21151 0.12086,0.13597 0.22661,0.34747 l 2.17549,4.80421 q 0.31726,0.69495 0.61941,1.46544 0.31726,0.77048 0.63452,1.61651 h 0.0302 q 0.28705,-0.81581 0.5892,-1.5863 0.30215,-0.77049 0.58919,-1.46543 l 2.14528,-4.774 q 0.0755,-0.24172 0.18129,-0.37768 0.12086,-0.15108 0.34747,-0.24173 0.22662,-0.0906 0.61941,-0.12086 0.3928,-0.0302 1.04242,-0.0302 0.86114,0 1.32947,0.0453 0.48344,0.0302 0.64963,0.1964 0.18129,0.15108 0.0906,0.46833 -0.0906,0.31726 -0.36258,0.86114 z m -0.37769,-17.40392 q 0.1964,-0.22661 0.37769,-0.36258 0.1964,-0.13597 0.45323,-0.2115 0.27193,-0.0755 0.64962,-0.0907 0.37769,-0.0302 0.93667,-0.0302 0.69495,0 1.07264,0.0906 0.3928,0.0907 0.52876,0.24172 0.15108,0.13597 0.0755,0.31726 -0.0755,0.18129 -0.28704,0.37769 l -3.35388,3.02151 q -0.15108,0.13597 -0.31726,0.24172 -0.15108,0.0907 -0.37769,0.16619 -0.22661,0.0604 -0.54387,0.0906 -0.31726,0.0302 -0.7856,0.0302 -0.51365,0 -0.83091,-0.0453 -0.30215,-0.0453 -0.43812,-0.13597 -0.12086,-0.10576 -0.0906,-0.25683 0.0302,-0.15108 0.21151,-0.36258 z m -4.48695,5.27254 z"
         style=""
         id="path3720" /><path
         d="m 339.15852,-106.05969 q 0,0.37769 -0.0302,0.64963 -0.0151,0.25683 -0.0604,0.45323 -0.0453,0.18129 -0.12087,0.31726 -0.0755,0.13596 -0.24172,0.31725 -0.16618,0.16619 -0.64962,0.43812 -0.46834,0.27194 -1.16328,0.52877 -0.67984,0.24172 -1.57119,0.4079 -0.87624,0.16619 -1.90356,0.16619 -2.0093,0 -3.62581,-0.61941 -1.61651,-0.61941 -2.74958,-1.84313 -1.13307,-1.23882 -1.73737,-3.08194 -0.6043,-1.84312 -0.6043,-4.29055 0,-2.49275 0.66473,-4.42652 0.66473,-1.93377 1.85823,-3.24813 1.1935,-1.31435 2.85533,-1.99419 1.67694,-0.67984 3.68625,-0.67984 0.81581,0 1.57119,0.13596 0.75537,0.13597 1.38989,0.36259 0.64963,0.2115 1.16329,0.49854 0.51365,0.28705 0.71005,0.49855 0.21151,0.1964 0.28704,0.33237 0.0755,0.13597 0.12087,0.34748 0.0453,0.2115 0.0604,0.49854 0.0302,0.28705 0.0302,0.71006 0,0.45323 -0.0302,0.77049 -0.0302,0.31726 -0.10576,0.51365 -0.0755,0.1964 -0.18129,0.28705 -0.10575,0.0906 -0.24172,0.0906 -0.22661,0 -0.57409,-0.25683 -0.34747,-0.27193 -0.90645,-0.58919 -0.54387,-0.33237 -1.31436,-0.5892 -0.75538,-0.27193 -1.81291,-0.27193 -1.16328,0 -2.08484,0.48344 -0.90646,0.46833 -1.55608,1.35968 -0.63452,0.87624 -0.96689,2.13017 -0.33236,1.25393 -0.33236,2.82511 0,1.72227 0.34747,2.9913 0.36258,1.25393 1.01221,2.06974 0.66473,0.81581 1.58629,1.22371 0.93667,0.3928 2.09996,0.3928 1.05753,0 1.82801,-0.24172 0.77049,-0.25683 1.31436,-0.55898 0.55898,-0.30215 0.90645,-0.54387 0.36259,-0.24173 0.55898,-0.24173 0.15108,0 0.24172,0.0604 0.0907,0.0604 0.15108,0.24173 0.0604,0.18129 0.0906,0.51365 0.0302,0.31726 0.0302,0.86113 z"
         style=""
         id="path3722" /><path
         d="m 355.59252,-103.64247 q 0,0.15107 -0.10576,0.27193 -0.0906,0.12086 -0.31726,0.1964 -0.22661,0.0755 -0.6043,0.12086 -0.37769,0.0453 -0.95178,0.0453 -0.58919,0 -0.98199,-0.0453 -0.37769,-0.0453 -0.6043,-0.12086 -0.21151,-0.0755 -0.31726,-0.1964 -0.0906,-0.12086 -0.0906,-0.27193 v -7.90126 h -7.31207 v 7.90126 q 0,0.15107 -0.0906,0.27193 -0.0906,0.12086 -0.31726,0.1964 -0.22662,0.0755 -0.6043,0.12086 -0.37769,0.0453 -0.96689,0.0453 -0.57409,0 -0.96688,-0.0453 -0.37769,-0.0453 -0.60431,-0.12086 -0.22661,-0.0755 -0.33236,-0.1964 -0.0906,-0.12086 -0.0906,-0.27193 v -18.46145 q 0,-0.15108 0.0906,-0.27194 0.10575,-0.12086 0.33236,-0.1964 0.22662,-0.0755 0.60431,-0.12086 0.39279,-0.0453 0.96688,-0.0453 0.5892,0 0.96689,0.0453 0.37768,0.0453 0.6043,0.12086 0.22661,0.0755 0.31726,0.1964 0.0906,0.12086 0.0906,0.27194 v 7.17609 h 7.31207 v -7.17609 q 0,-0.15108 0.0906,-0.27194 0.10575,-0.12086 0.31726,-0.1964 0.22661,-0.0755 0.6043,-0.12086 0.3928,-0.0453 0.98199,-0.0453 0.57409,0 0.95178,0.0453 0.37769,0.0453 0.6043,0.12086 0.22662,0.0755 0.31726,0.1964 0.10576,0.12086 0.10576,0.27194 z"
         style=""
         id="path3724" /></g><g
       aria-label="LUŽEB"
       transform="scale(1,-1)"
       style="font-variant:normal;font-weight:bold;font-stretch:normal;font-size:30.94029999px;font-family:Calibri;-inkscape-font-specification:Calibri-Bold;writing-mode:lr-tb;fill:#46455e;fill-opacity:1;fill-rule:nonzero;stroke:none"
       id="text120"><path
         d="m 255.35845,-47.520231 q 0,0.453227 -0.0453,0.770486 -0.0302,0.302151 -0.10576,0.513657 -0.0755,0.196399 -0.19639,0.287044 -0.10576,0.09065 -0.25683,0.09065 h -8.95879 q -0.49855,0 -0.84603,-0.287044 -0.33236,-0.302152 -0.33236,-0.966885 v -17.751392 q 0,-0.151076 0.0906,-0.271937 0.10576,-0.12086 0.33237,-0.196398 0.22661,-0.07554 0.6043,-0.120861 0.3928,-0.04532 0.96689,-0.04532 0.58919,0 0.96688,0.04532 0.37769,0.04532 0.6043,0.120861 0.22662,0.07554 0.31726,0.196398 0.10576,0.120861 0.10576,0.271937 v 15.726978 h 6.14878 q 0.15107,0 0.25683,0.09065 0.12086,0.07554 0.19639,0.271936 0.0755,0.181291 0.10576,0.49855 0.0453,0.302151 0.0453,0.755378 z"
         style=""
         id="path3727" /><path
         d="m 271.2264,-53.140246 q 0,1.7978 -0.52877,3.217912 -0.52876,1.420111 -1.55608,2.402103 -1.02731,0.981992 -2.53807,1.495649 -1.51075,0.513658 -3.47474,0.513658 -1.84312,0 -3.30856,-0.453227 -1.46543,-0.468335 -2.47764,-1.405004 -1.0122,-0.93667 -1.55608,-2.326566 -0.52876,-1.405004 -0.52876,-3.278342 v -11.889656 q 0,-0.151076 0.0906,-0.271937 0.0906,-0.12086 0.31726,-0.196398 0.24172,-0.07554 0.61941,-0.120861 0.37769,-0.04532 0.96689,-0.04532 0.57409,0 0.95177,0.04532 0.37769,0.04532 0.60431,0.120861 0.22661,0.07554 0.31726,0.196398 0.10575,0.120861 0.10575,0.271937 v 11.542182 q 0,1.163283 0.28704,2.024414 0.28705,0.846024 0.81581,1.405004 0.54387,0.55898 1.28415,0.846024 0.75537,0.271936 1.67694,0.271936 0.93666,0 1.67694,-0.287044 0.74027,-0.287044 1.25392,-0.830916 0.51366,-0.55898 0.7856,-1.359681 0.28704,-0.815809 0.28704,-1.843124 v -11.768795 q 0,-0.151076 0.0906,-0.271937 0.0906,-0.12086 0.31726,-0.196398 0.22661,-0.07554 0.6043,-0.120861 0.39279,-0.04532 0.96688,-0.04532 0.57409,0 0.93667,0.04532 0.37769,0.04532 0.6043,0.120861 0.22662,0.07554 0.31726,0.196398 0.0907,0.120861 0.0907,0.271937 z"
         style=""
         id="path3729" /><path
         d="m 285.81656,-47.429586 q 0,0.43812 -0.0453,0.740271 -0.0302,0.302152 -0.10575,0.49855 -0.0755,0.181291 -0.1964,0.256829 -0.10575,0.07554 -0.24172,0.07554 h -11.52707 q -0.60431,0 -0.93667,-0.347475 -0.31726,-0.347474 -0.31726,-1.012207 v -0.664733 q 0,-0.302151 0.0302,-0.543872 0.0453,-0.256829 0.13597,-0.513657 0.0906,-0.256829 0.25683,-0.55898 0.18129,-0.302152 0.43812,-0.725164 l 7.584,-12.025624 h -7.52357 q -0.18129,0 -0.31726,-0.07554 -0.12086,-0.09065 -0.2115,-0.271936 -0.0755,-0.181291 -0.12086,-0.483442 -0.0302,-0.302152 -0.0302,-0.725164 0,-0.453227 0.0302,-0.755378 0.0453,-0.317259 0.12086,-0.49855 0.0906,-0.196398 0.2115,-0.271936 0.13597,-0.07554 0.31726,-0.07554 h 10.80191 q 0.61941,0 0.90646,0.317259 0.30215,0.317259 0.30215,0.891347 v 0.74027 q 0,0.407905 -0.0453,0.710056 -0.0302,0.287044 -0.13596,0.574088 -0.0907,0.271936 -0.25683,0.574087 -0.16619,0.287044 -0.42301,0.694948 l -7.46314,11.859442 h 8.17319 q 0.28705,0 0.43812,0.362581 0.15108,0.362582 0.15108,1.253928 z m -6.75309,-19.367902 q -0.48344,0 -0.8158,-0.01511 -0.33237,-0.01511 -0.57409,-0.07554 -0.22662,-0.07554 -0.40791,-0.196398 -0.16618,-0.135968 -0.36258,-0.332366 l -2.9913,-3.23302 q -0.1964,-0.226614 -0.24172,-0.362582 -0.0302,-0.151075 0.0906,-0.226613 0.13597,-0.07554 0.45322,-0.105753 0.33237,-0.03021 0.84603,-0.03021 0.61941,0 1.01221,0.03021 0.39279,0.01511 0.61941,0.07554 0.24172,0.04532 0.36258,0.135968 0.13597,0.09064 0.25683,0.226613 l 1.78269,2.069737 1.85823,-2.039522 q 0.12086,-0.151075 0.24172,-0.241721 0.13597,-0.105753 0.36258,-0.151075 0.24172,-0.06043 0.61941,-0.07554 0.37769,-0.03021 1.01221,-0.03021 0.51366,0 0.81581,0.04532 0.30215,0.03021 0.42301,0.120861 0.13597,0.07554 0.0906,0.226613 -0.0302,0.135969 -0.1964,0.332367 l -2.94598,3.23302 q -0.16618,0.196398 -0.36258,0.317258 -0.1964,0.120861 -0.46833,0.196399 -0.25683,0.06043 -0.61941,0.09064 -0.34748,0.01511 -0.86114,0.01511 z m -6.93437,1.389896 z"
         style=""
         id="path3731" /><path
         d="m 298.51223,-47.414478 q 0,0.43812 -0.0453,0.740271 -0.0302,0.287044 -0.10576,0.468334 -0.0755,0.181291 -0.1964,0.271937 -0.10575,0.07554 -0.24172,0.07554 h -9.81992 q -0.49855,0 -0.84602,-0.287044 -0.33237,-0.302152 -0.33237,-0.966885 v -17.041337 q 0,-0.664733 0.33237,-0.951777 0.34747,-0.302151 0.84602,-0.302151 h 9.75949 q 0.13597,0 0.24172,0.07554 0.10576,0.07554 0.18129,0.271936 0.0755,0.181291 0.10576,0.483442 0.0453,0.287044 0.0453,0.740271 0,0.423012 -0.0453,0.725164 -0.0302,0.287043 -0.10576,0.468334 -0.0755,0.181291 -0.18129,0.271936 -0.10575,0.07554 -0.24172,0.07554 h -6.97969 v 4.773992 h 5.90705 q 0.13597,0 0.24173,0.09065 0.12086,0.07554 0.19639,0.256829 0.0755,0.166183 0.10576,0.468334 0.0453,0.287044 0.0453,0.710056 0,0.43812 -0.0453,0.725163 -0.0302,0.287044 -0.10576,0.468335 -0.0755,0.166183 -0.19639,0.241721 -0.10576,0.07554 -0.24173,0.07554 h -5.90705 v 5.514262 h 7.04012 q 0.13597,0 0.24172,0.09065 0.12086,0.07554 0.1964,0.256829 0.0755,0.18129 0.10576,0.483442 0.0453,0.287044 0.0453,0.725163 z"
         style=""
         id="path3733" /><path
         d="m 314.50861,-51.720135 q 0,1.042422 -0.28704,1.888446 -0.28704,0.846024 -0.8007,1.495649 -0.49855,0.649626 -1.20861,1.11796 -0.69494,0.468335 -1.54097,0.770486 -0.84602,0.302152 -1.81291,0.453227 -0.95177,0.135969 -2.13016,0.135969 h -5.19701 q -0.49855,0 -0.84602,-0.287044 -0.33237,-0.302152 -0.33237,-0.966885 v -17.041337 q 0,-0.664733 0.33237,-0.951777 0.34747,-0.302151 0.84602,-0.302151 h 4.90996 q 1.7978,0 3.03662,0.302151 1.25393,0.302152 2.09996,0.921562 0.86113,0.604303 1.31436,1.540972 0.45322,0.936669 0.45322,2.205705 0,0.710056 -0.18129,1.344574 -0.18129,0.61941 -0.52876,1.133067 -0.34748,0.513658 -0.86113,0.906454 -0.49855,0.392797 -1.14818,0.634518 0.83092,0.151076 1.52586,0.528765 0.71006,0.377689 1.22372,0.981992 0.52876,0.589195 0.83091,1.389896 0.30215,0.800702 0.30215,1.797801 z m -5.13657,-8.233625 q 0,-0.589195 -0.18129,-1.057529 -0.18129,-0.468335 -0.54387,-0.770486 -0.36258,-0.317259 -0.92156,-0.483443 -0.54388,-0.166183 -1.46544,-0.166183 h -2.0093 v 5.076143 h 2.22081 q 0.86113,0 1.37479,-0.196398 0.51365,-0.211506 0.84602,-0.55898 0.34748,-0.362582 0.51366,-0.830917 0.16618,-0.483442 0.16618,-1.012207 z m 1.01221,8.369593 q 0,-0.67984 -0.22661,-1.208605 -0.22662,-0.543873 -0.66474,-0.906454 -0.43812,-0.362582 -1.11796,-0.55898 -0.67984,-0.196399 -1.76758,-0.196399 h -2.35678 v 5.559585 h 2.87043 q 0.83092,0 1.3899,-0.166183 0.57409,-0.181291 0.98199,-0.513657 0.42301,-0.347474 0.64963,-0.846024 0.24172,-0.513657 0.24172,-1.163283 z"
         style=""
         id="path3735" /></g><g
       aria-label="A"
       transform="scale(1,-1)"
       style="font-variant:normal;font-weight:normal;font-stretch:normal;font-size:59.3022995px;font-family:'Berlin Sans FB';-inkscape-font-specification:BerlinSansFB-Reg;writing-mode:lr-tb;fill:#644619;fill-opacity:1;fill-rule:nonzero;stroke:none"
       id="text160"><path
         d="m 234.58857,-214.97537 q 0,0.34747 -0.69495,0.34747 -0.55017,0 -1.62155,-0.0869 -1.04242,-0.0869 -1.59259,-0.0869 -0.55017,0 -1.6505,0.0869 -1.10034,0.0869 -1.65051,0.0869 -0.81077,0 -2.08484,-4.37239 -1.24512,-4.40134 -2.54815,-4.45925 -1.07138,-0.0579 -5.58855,-0.0579 h -4.57508 q -4.77777,0 -5.44376,0.0579 -1.04243,0.0869 -2.22963,4.45925 -1.15825,4.37239 -1.79528,4.37239 h -6.51515 q -0.57912,0 -0.57912,-0.40539 0,-0.28956 0.40538,-1.30303 l 7.09427,-19.40065 q 0.89764,-2.34545 5.44377,-13.52255 0.81077,-1.85319 2.20067,-5.58854 0.34747,-1.10034 0.75286,-1.10034 0.55017,0 1.62155,0.14478 1.07138,0.14478 1.62155,0.14478 0.52121,0 1.56363,-0.14478 1.07138,-0.17373 1.56364,-0.17373 0.2606,0 0.7239,1.07138 0.69495,1.62154 6.86262,17.46058 8.71582,22.26732 8.71582,22.47002 z m -13.49359,-15.98383 q 0,-0.83973 -2.60606,-7.52861 -2.51919,-6.48619 -3.56161,-8.51312 -5.99394,15.28887 -5.99394,16.01278 0,0.98451 2.20067,1.15825 0.11583,0.029 2.83771,0.029 h 2.98249 q 4.14074,0 4.14074,-1.15825 z"
         style=""
         id="path3738" /></g><g
       aria-label="Z"
       transform="scale(1,-1)"
       style="font-variant:normal;font-weight:normal;font-stretch:normal;font-size:59.3022995px;font-family:'Berlin Sans FB';-inkscape-font-specification:BerlinSansFB-Reg;writing-mode:lr-tb;fill:#644619;fill-opacity:1;fill-rule:nonzero;stroke:none"
       id="text172"><path
         d="m 228.59626,-164.32827 q 0,1.01347 -0.37643,3.09832 -0.37643,2.08484 -0.37643,3.12727 0,0.63703 -0.69495,0.63703 -1.73737,0 -5.18316,-0.11582 -3.41683,-0.11583 -5.1542,-0.11583 h -13.7542 q -0.81077,0 -0.95556,-0.57912 -0.63703,-3.24309 -0.63703,-4.83569 0,-0.31851 8.80268,-14.15958 8.83164,-13.87002 8.83164,-14.56497 0,-0.31852 -0.7239,-0.31852 h -15.43366 q -0.57912,0 -0.57912,-0.57912 0,-0.23165 0.40539,-2.63501 0.43434,-2.40337 0.52121,-2.7798 0.11582,-0.40539 0.69495,-0.40539 1.12929,0 3.32996,0.2027 2.22963,0.20269 3.32996,0.20269 h 16.27339 q 0.52121,0 0.63704,0.49226 0.43434,1.76632 0.43434,4.31447 0,0.17374 -9.17912,14.56497 -9.15016,14.39123 -9.17911,14.82557 0.14478,0.2027 0.55017,0.2027 8.39729,0 12.85655,-0.34748 0.57912,-0.0579 2.60606,-0.31851 1.6505,-0.23165 2.5771,-0.23165 0.37643,0 0.37643,0.31851 z"
         style=""
         id="path3741" /></g><g
       aria-label="K"
       transform="scale(1,-1)"
       style="font-variant:normal;font-weight:normal;font-stretch:normal;font-size:59.3022995px;font-family:'Berlin Sans FB';-inkscape-font-specification:BerlinSansFB-Reg;writing-mode:lr-tb;fill:#644619;fill-opacity:1;fill-rule:nonzero;stroke:none"
       id="text184"><path
         d="m 232.69146,-102.12854 q 0,1.36094 -0.83973,1.36094 h -6.65992 q -0.83973,0 -4.37239,-6.16767 -2.98249,-5.21212 -3.967,-7.52861 -0.98451,-2.22963 -1.12929,-2.49024 -0.86869,-1.44781 -2.02693,-1.53468 -0.34748,-0.029 -1.94007,-0.029 -3.64848,0 -3.64848,0.89764 0,2.66397 0.17374,7.96296 0.20269,5.29898 0.20269,7.93399 0,0.95556 -0.72391,0.95556 -0.55016,0 -1.6505,-0.0869 -1.10034,-0.0869 -1.6505,-0.0869 -0.52121,0 -1.56364,0.0869 -1.01346,0.0869 -1.53468,0.0869 -0.7239,0 -0.7239,-0.66599 0,-3.18519 0.28956,-9.55555 0.31852,-6.39932 0.31852,-9.5845 0,-3.35892 -0.31852,-10.07676 -0.28956,-6.7468 -0.28956,-10.10571 0,-0.63704 0.7239,-0.63704 0.52122,0 1.59259,0.0869 1.07138,0.0869 1.62155,0.0869 0.52121,0 1.56364,-0.0869 1.04242,-0.0869 1.56363,-0.0869 0.66599,0 0.66599,0.52121 0,2.46128 -0.17373,7.41279 -0.14478,4.95151 -0.14478,7.44174 0,1.12929 0.14478,1.41886 0.23165,0.52121 1.1872,0.52121 5.6175,0 8.22356,-2.08485 2.22963,-1.8532 4.22761,-6.80471 1.44781,-3.88013 2.89562,-7.76026 0.20269,-0.49225 0.89764,-0.66599 0.4633,-0.11583 3.06936,-0.11583 3.18518,0 3.18518,0.89765 0,0.52121 -1.33199,4.6909 -1.56363,4.86464 -4.05386,8.57104 -1.65051,2.51919 -4.37239,5.06733 -0.69495,0.60808 -0.69495,1.10034 0,0.52121 2.34545,5.18316 2.02694,4.02491 3.67744,6.45723 1.82424,2.22963 5.09629,6.86262 0.14478,0.26061 0.14478,0.55017 z"
         style=""
         id="path3744" /></g><g
       aria-label="S"
       transform="scale(1,-1)"
       style="font-variant:normal;font-weight:normal;font-stretch:normal;font-size:59.3022995px;font-family:'Berlin Sans FB';-inkscape-font-specification:BerlinSansFB-Reg;writing-mode:lr-tb;fill:#644619;fill-opacity:1;fill-rule:nonzero;stroke:none"
       id="text196"><path
         d="m 227.66876,-81.538872 q -0.57913,0.955555 -1.5926,2.89562 -0.31851,0.897642 -1.12929,2.548146 -0.17373,0.260606 -0.4633,0.260606 0.029,0 -2.80875,-1.013467 -2.80875,-1.042424 -4.63299,-1.042424 -5.32794,0 -5.32794,4.690905 0,2.606058 3.73535,4.546124 6.28349,3.27205 6.94949,3.764306 3.73535,2.982488 3.73535,8.049824 0,6.486189 -5.12525,10.221538 -4.60404,3.35892 -11.32187,3.35892 -3.12727,0 -3.35892,-0.694949 -0.11583,-1.100336 -0.52122,-3.214138 -0.23165,-0.868686 -0.7239,-2.606058 -0.0869,-0.260606 -0.0869,-0.492256 0,-0.405387 0.43434,-0.405387 0.69495,0 2.11381,0.144781 1.44781,0.144781 2.17171,0.144781 8.97642,0 8.97642,-5.79124 0,-2.837708 -3.61952,-4.922554 -6.60202,-3.764306 -6.7468,-3.909087 -3.64848,-2.953533 -3.64848,-7.933999 0,-5.385854 3.53266,-8.628948 3.44579,-3.12727 8.91851,-3.12727 2.31649,0 5.32794,0.752861 3.27205,0.83973 4.92255,2.026935 0.14478,0.115824 0.28957,0.37643 z"
         style=""
         id="path3747" /></g><path
       d="m 103.583,221.193 -0.001,-0.001 v 0.001 C 84.849,208.325 80.095,182.707 92.962,163.975 v 0 h 10e-4 c 0.363,-0.514 0.736,-1.018 1.122,-1.514 v 0 l -52.619,-88.576 4.268,-14.836 47.961,80.047 3.195,-2.6 -48.558,-78.766 24.356,6.014 7.116,12.221 -0.929,11.207 9.329,1.613 7.307,12.353 -2.774,9.378 4.934,2.259 -0.847,5.34 9.76,3.039 4.745,11.159 7.925,-4.149 2.11,5.963 -3.709,7.041 3.03,5.476 c 10.327,-1.587 20.871,0.813 29.493,6.711 v 0 c 18.732,12.868 23.487,38.483 10.62,57.218 v 0 c -7.976,11.613 -20.855,17.854 -33.954,17.854 v 0 c -8.03,0.001 -16.142,-2.344 -23.261,-7.234 m 24.636,-23.552 -0.001,0.002 c -3.088,4.498 -1.946,10.65 2.551,13.74 v 0 h 0.002 c 4.497,3.09 10.648,1.948 13.737,-2.55 v 0 c 3.089,-4.499 1.948,-10.649 -2.549,-13.739 v 0 c -1.71,-1.176 -3.66,-1.739 -5.588,-1.74 v 0 c -3.145,0 -6.235,1.499 -8.152,4.287"
       style="fill:url(#linearGradient224);stroke:none"
       id="path226"
       inkscape:connector-curvature="0" /><g
       aria-label="ČR"
       transform="scale(1,-1)"
       style="font-variant:normal;font-weight:bold;font-stretch:normal;font-size:51.2983017px;font-family:Calibri;-inkscape-font-specification:Calibri-Bold;writing-mode:lr-tb;fill:#46455e;fill-opacity:1;fill-rule:nonzero;stroke:none"
       id="text246"><path
         d="m 121.29203,-295.5378 q 0,0.6262 -0.0501,1.07707 -0.025,0.42581 -0.10019,0.75144 -0.0751,0.30057 -0.20038,0.52601 -0.12524,0.22543 -0.40077,0.526 -0.27553,0.27553 -1.07707,0.7264 -0.77648,0.45086 -1.92869,0.87668 -1.12716,0.40076 -2.60499,0.67629 -1.45279,0.27553 -3.15605,0.27553 -3.33139,0 -6.01152,-1.02697 -2.68014,-1.02697 -4.55874,-3.05585 -1.878598,-2.05394 -2.880518,-5.1098 -1.00192,-3.05585 -1.00192,-7.11363 0,-4.13292 1.102112,-7.33906 1.102112,-3.20614 3.080906,-5.38532 1.97879,-2.17918 4.73407,-3.30634 2.78033,-1.12716 6.11171,-1.12716 1.35259,0 2.60499,0.22544 1.2524,0.22543 2.30442,0.60115 1.07706,0.35067 1.9287,0.82658 0.85163,0.47591 1.17725,0.82659 0.35067,0.32562 0.47591,0.55105 0.12524,0.22543 0.20039,0.57611 0.0751,0.35067 0.10019,0.82658 0.0501,0.47591 0.0501,1.17726 0,0.75144 -0.0501,1.27744 -0.0501,0.52601 -0.17534,0.85164 -0.12524,0.32562 -0.30057,0.47591 -0.17534,0.15029 -0.40077,0.15029 -0.37572,0 -0.95182,-0.42582 -0.57611,-0.45086 -1.50288,-0.97687 -0.90173,-0.55106 -2.17918,-0.97687 -1.2524,-0.45087 -3.00576,-0.45087 -1.9287,0 -3.45662,0.80154 -1.50288,0.77649 -2.57995,2.25432 -1.05201,1.45278 -1.60307,3.53177 -0.55106,2.07898 -0.55106,4.68397 0,2.85547 0.57611,4.95951 0.60115,2.07898 1.67821,3.43157 1.10212,1.35259 2.63004,2.02889 1.55298,0.65125 3.48168,0.65125 1.75336,0 3.0308,-0.40077 1.27745,-0.42582 2.17918,-0.92678 0.92678,-0.50096 1.50288,-0.90173 0.60115,-0.40076 0.92678,-0.40076 0.25048,0 0.40076,0.10019 0.15029,0.10019 0.25048,0.40077 0.1002,0.30057 0.15029,0.85163 0.0501,0.52601 0.0501,1.42773 z m -10.19454,-29.80711 q -0.80153,0 -1.35259,-0.025 -0.55106,-0.0251 -0.95182,-0.12524 -0.37572,-0.12524 -0.6763,-0.32563 -0.27553,-0.22543 -0.60115,-0.55105 l -4.95951,-5.36027 q -0.32562,-0.37572 -0.40076,-0.60116 -0.0501,-0.25048 0.15028,-0.37572 0.22544,-0.12524 0.75144,-0.17533 0.55106,-0.0501 1.40269,-0.0501 1.02697,0 1.67822,0.0501 0.65125,0.0251 1.02697,0.12524 0.40076,0.0751 0.60115,0.22543 0.22543,0.15029 0.42581,0.37572 l 2.95567,3.43158 3.0809,-3.38148 q 0.20039,-0.25048 0.40077,-0.40077 0.22543,-0.17534 0.60115,-0.25048 0.40077,-0.10019 1.02697,-0.12524 0.6262,-0.0501 1.67822,-0.0501 0.85163,0 1.35259,0.0752 0.50096,0.0501 0.70134,0.20038 0.22543,0.12524 0.15029,0.37572 -0.0501,0.22543 -0.32562,0.55106 l -4.88436,5.36027 q -0.27553,0.32562 -0.60116,0.52601 -0.32562,0.20038 -0.77648,0.32562 -0.42582,0.10019 -1.02697,0.15029 -0.57611,0.025 -1.42774,0.025 z m -11.49703,2.30441 z"
         style=""
         id="path3671" /><path
         d="m 147.28684,-291.48002 q 0,0.27553 -0.10019,0.47591 -0.1002,0.17534 -0.47592,0.30058 -0.37572,0.12524 -1.10211,0.17533 -0.72639,0.0501 -1.97879,0.0501 -1.05202,0 -1.67821,-0.0501 -0.6262,-0.0501 -1.00192,-0.17533 -0.35068,-0.15029 -0.50096,-0.35067 -0.15029,-0.22544 -0.25048,-0.52601 l -2.90557,-7.23887 q -0.52601,-1.22736 -1.02697,-2.17918 -0.50096,-0.95182 -1.12716,-1.57802 -0.60115,-0.65125 -1.40269,-0.97687 -0.80153,-0.32563 -1.85355,-0.32563 h -2.05394 v 12.34866 q 0,0.25048 -0.17533,0.45087 -0.15029,0.20038 -0.52601,0.32562 -0.37572,0.12524 -1.00192,0.20039 -0.6262,0.0751 -1.60307,0.0751 -0.95183,0 -1.60307,-0.0751 -0.6262,-0.0752 -1.00192,-0.20039 -0.37572,-0.12524 -0.52601,-0.32562 -0.15029,-0.20039 -0.15029,-0.45087 v -29.43139 q 0,-1.10212 0.55106,-1.57803 0.5761,-0.50096 1.40268,-0.50096 h 8.39108 q 1.27745,0 2.10404,0.0501 0.82658,0.0501 1.50288,0.12524 1.95374,0.27553 3.50672,0.95182 1.57802,0.6763 2.65508,1.77841 1.10211,1.07706 1.67822,2.57994 0.5761,1.47784 0.5761,3.40653 0,1.62812 -0.42581,2.98071 -0.40077,1.32755 -1.20231,2.37956 -0.80153,1.05202 -1.97879,1.82851 -1.17725,0.77649 -2.68013,1.2524 0.72639,0.35067 1.35259,0.85163 0.65125,0.50096 1.2023,1.22735 0.5761,0.70135 1.07706,1.62812 0.50096,0.90173 0.97688,2.05394 l 2.73023,6.38724 q 0.37572,0.95182 0.50096,1.40268 0.12524,0.42582 0.12524,0.6763 z m -8.49127,-21.99214 q 0,-1.60307 -0.72639,-2.70519 -0.7264,-1.10211 -2.37956,-1.55297 -0.50096,-0.12524 -1.15221,-0.20039 -0.6262,-0.0751 -1.75336,-0.0751 h -2.95567 v 9.19262 h 3.35644 q 1.40268,0 2.4547,-0.32563 1.05202,-0.35067 1.75336,-0.95182 0.70134,-0.6262 1.05202,-1.47783 0.35067,-0.85164 0.35067,-1.90365 z"
         style=""
         id="path3673" /></g></g></svg>